<?xml version="1.0" encoding="UTF-8"?>
<!DOCTYPE svg PUBLIC "-//W3C//DTD SVG 1.1//EN" "http://www.w3.org/Graphics/SVG/1.1/DTD/svg11.dtd">
<svg xmlns="http://www.w3.org/2000/svg" version="1.1" width="128px" height="128px" style="shape-rendering:geometricPrecision; text-rendering:geometricPrecision; image-rendering:optimizeQuality; fill-rule:evenodd; clip-rule:evenodd" xmlns:xlink="http://www.w3.org/1999/xlink">
<g><path style="opacity:0.821" fill="#ffffff" d="M 39.5,-0.5 C 42.8333,-0.5 46.1667,-0.5 49.5,-0.5C 52.4518,1.78508 55.1185,4.45175 57.5,7.5C 65.5414,9.34655 71.5414,13.8465 75.5,21C 83.0417,21.7092 87.0417,25.8759 87.5,33.5C 87.0837,36.8299 85.7503,39.6632 83.5,42C 84.2156,44.7923 84.5489,47.6257 84.5,50.5C 100.228,47.7785 111.061,53.7785 117,68.5C 121.283,70.6189 124.783,73.6189 127.5,77.5C 127.5,80.8333 127.5,84.1667 127.5,87.5C 123.886,90.3503 123.886,93.017 127.5,95.5C 127.5,101.167 127.5,106.833 127.5,112.5C 126.146,114.696 124.146,116.196 121.5,117C 94.8354,117.5 68.1687,117.667 41.5,117.5C 41.5,115.833 41.5,114.167 41.5,112.5C 68.2556,112.982 94.9223,112.482 121.5,111C 122.632,106.587 122.799,102.087 122,97.5C 120.933,96.8095 119.766,96.3095 118.5,96C 81.8333,95.3333 45.1667,95.3333 8.5,96C 7.23409,96.3095 6.06743,96.8095 5,97.5C 4.44763,102.577 4.44763,107.577 5,112.5C 4,113.5 3,114.5 2,115.5C 1.14825,114.429 0.314913,113.429 -0.5,112.5C -0.5,106.833 -0.5,101.167 -0.5,95.5C 0.836628,94.6851 1.83663,93.5185 2.5,92C 1.36362,90.8549 0.363622,89.6883 -0.5,88.5C -0.5,85.1667 -0.5,81.8333 -0.5,78.5C 2.19333,74.6459 5.69333,71.6459 10,69.5C 12.6338,63.7279 16.1338,58.5612 20.5,54C 22.9552,52.6884 25.4552,51.5218 28,50.5C 28.8835,47.3426 30.0502,44.3426 31.5,41.5C 28.6848,34.0221 29.0182,26.6888 32.5,19.5C 29.4063,10.6903 31.7397,4.02363 39.5,-0.5 Z M 41.5,4.5 C 52.5664,5.63522 52.8997,7.46856 42.5,10C 40.3911,11.1411 38.5578,12.6411 37,14.5C 36.0769,10.0165 37.5769,6.6832 41.5,4.5 Z M 62.5,37.5 C 62.244,39.9124 63.244,41.5791 65.5,42.5C 67.5543,40.8062 69.8877,39.6395 72.5,39C 73.9901,36.7997 73.6568,34.9664 71.5,33.5C 68.8122,34.5134 66.1456,35.5134 63.5,36.5C 63.4142,35.5041 63.7476,34.6708 64.5,34C 66.7148,32.9562 69.0481,32.2895 71.5,32C 72.1905,30.9326 72.6905,29.7659 73,28.5C 76.3797,35.3054 78.5464,42.4721 79.5,50C 79.2507,55.7571 77.2507,60.7571 73.5,65C 56.4141,68.7401 45.4141,62.2401 40.5,45.5C 41.609,45.5569 42.609,45.8902 43.5,46.5C 43.795,48.4233 44.6283,50.0899 46,51.5C 48.4206,50.0394 50.9206,48.7061 53.5,47.5C 54.7472,45.9936 54.7472,44.4936 53.5,43C 50.7804,42.9552 48.1138,43.4552 45.5,44.5C 47.3914,41.8283 50.0581,40.8283 53.5,41.5C 53.4208,40.0695 53.7542,38.7362 54.5,37.5C 47.5198,34.9093 42.3531,36.9093 39,43.5C 35.2772,39.0875 34.7772,34.4208 37.5,29.5C 35.1586,25.2755 36.1586,24.6088 40.5,27.5C 44.5903,24.5661 44.2569,22.0661 39.5,20C 40.6667,18.8333 41.8333,17.6667 43,16.5C 44.3333,18.5 45.6667,20.5 47,22.5C 48.4194,21.5399 49.9194,20.7065 51.5,20C 50.373,18.2467 49.373,16.4134 48.5,14.5C 49.7357,13.6433 51.069,12.9766 52.5,12.5C 52.7341,14.6609 53.0675,16.8276 53.5,19C 54.9437,19.7805 56.277,19.6139 57.5,18.5C 58.1988,12.3122 59.8655,12.1456 62.5,18C 65.0075,18.0929 67.1741,18.9262 69,20.5C 70.0395,22.7463 71.2062,24.913 72.5,27C 65.8331,26.3333 60.8331,28.8333 57.5,34.5C 58.6885,36.2623 60.3551,37.2623 62.5,37.5 Z M 78.5,27.5 C 80.1786,28.9997 81.5119,30.833 82.5,33C 80.1559,32.235 78.8225,30.4017 78.5,27.5 Z M 34.5,48.5 C 35.6896,50.3545 37.0229,52.1879 38.5,54C 37.5509,54.6172 36.7175,54.4506 36,53.5C 34.9914,51.9751 34.4914,50.3084 34.5,48.5 Z M 29.5,55.5 C 31.2976,57.1122 33.2976,58.6122 35.5,60C 37.8333,60.3333 40.1667,60.6667 42.5,61C 44.1667,62.6667 45.8333,64.3333 47.5,66C 37.1048,67.2065 26.7714,68.2065 16.5,69C 19.0462,62.6229 23.3796,58.1229 29.5,55.5 Z M 83.5,55.5 C 96.0648,52.7835 105.065,57.1168 110.5,68.5C 109.975,69.1924 109.308,69.6924 108.5,70C 102.161,70.7235 95.828,71.0568 89.5,71C 86.772,68.6078 83.772,66.6078 80.5,65C 82.7949,62.2432 83.7949,59.0765 83.5,55.5 Z M 51.5,70.5 C 61.6654,70.0269 71.6654,70.5269 81.5,72C 73.5746,73.7039 65.5746,75.0373 57.5,76C 44.8333,80.6667 32.1667,85.3333 19.5,90C 15.8333,90.6667 12.1667,90.6667 8.5,90C 3.16667,85.6667 3.16667,81.3333 8.5,77C 12.7232,75.5275 17.0566,74.5275 21.5,74C 31.6854,73.1506 41.6854,71.9839 51.5,70.5 Z M 111.5,74.5 C 119.372,74.2013 122.872,77.868 122,85.5C 121.167,87.6667 119.667,89.1667 117.5,90C 99.4542,89.8297 81.4542,88.663 63.5,86.5C 58.925,86.7469 54.5917,87.9135 50.5,90C 45.5,90.6667 40.5,90.6667 35.5,90C 43.8333,87 52.1667,84 60.5,81C 77.5836,78.2953 94.5836,76.1286 111.5,74.5 Z M 21.5,104.5 C 22.7562,104.461 23.7562,104.961 24.5,106C 21.2283,110.651 20.2283,110.151 21.5,104.5 Z M 13.5,110.5 C 15.5638,110.762 16.8971,111.929 17.5,114C 14.2115,114.537 12.8782,113.371 13.5,110.5 Z M 27.5,111.5 C 29.5167,110.126 31.5167,110.293 33.5,112C 31.5111,113.554 29.5111,113.387 27.5,111.5 Z"/></g>
<g><path style="opacity:0.699" fill="#ffffff" d="M 62.5,37.5 C 63.1667,37.5 63.5,37.1667 63.5,36.5C 66.1456,35.5134 68.8122,34.5134 71.5,33.5C 73.6568,34.9664 73.9901,36.7997 72.5,39C 69.8877,39.6395 67.5543,40.8062 65.5,42.5C 63.244,41.5791 62.244,39.9124 62.5,37.5 Z"/></g>
<g><path style="opacity:0.699" fill="#ffffff" d="M 58.5,37.5 C 61.3113,41.1085 63.6446,45.1085 65.5,49.5C 64.5637,50.9744 63.2303,51.9744 61.5,52.5C 58.7076,48.6569 56.3742,44.4902 54.5,40C 56.0664,39.3918 57.3998,38.5585 58.5,37.5 Z"/></g>
<g><path style="opacity:0.699" fill="#ffffff" d="M 43.5,46.5 C 44.1667,46.5 44.5,46.1667 44.5,45.5C 45.1667,45.5 45.5,45.1667 45.5,44.5C 48.1138,43.4552 50.7804,42.9552 53.5,43C 54.7472,44.4936 54.7472,45.9936 53.5,47.5C 50.9206,48.7061 48.4206,50.0394 46,51.5C 44.6283,50.0899 43.795,48.4233 43.5,46.5 Z"/></g>
<g><path style="opacity:0.752" fill="#ffffff" d="M 66.5,51.5 C 72.0316,54.6329 71.6983,57.1329 65.5,59C 63.5273,59.4955 61.5273,59.6621 59.5,59.5C 59.5,57.8333 59.5,56.1667 59.5,54.5C 62.491,54.8337 64.8243,53.8337 66.5,51.5 Z"/></g>
<g><path style="opacity:0.817" fill="#ffffff" d="M 32.5,127.5 C 29.8333,127.5 27.1667,127.5 24.5,127.5C 23.8333,126.167 23.1667,126.167 22.5,127.5C 19.8333,127.5 17.1667,127.5 14.5,127.5C 12.5338,123.117 10.3672,118.783 8,114.5C 7.33333,112.833 7.33333,111.167 8,109.5C 11.1456,106.667 14.3122,103.834 17.5,101C 22.3433,98.3764 26.3433,99.2097 29.5,103.5C 33.3352,104.161 36.1686,106.161 38,109.5C 37.1101,114.447 36.1101,119.447 35,124.5C 33.955,125.373 33.1217,126.373 32.5,127.5 Z M 21.5,104.5 C 20.2283,110.151 21.2283,110.651 24.5,106C 23.7562,104.961 22.7562,104.461 21.5,104.5 Z M 13.5,110.5 C 12.8782,113.371 14.2115,114.537 17.5,114C 16.8971,111.929 15.5638,110.762 13.5,110.5 Z M 27.5,111.5 C 29.5111,113.387 31.5111,113.554 33.5,112C 31.5167,110.293 29.5167,110.126 27.5,111.5 Z M 27.5,117.5 C 28.8366,118.315 29.8366,119.482 30.5,121C 29.1667,123 27.8333,123 26.5,121C 27.3366,119.989 27.67,118.822 27.5,117.5 Z M 16.5,119.5 C 22.764,119.614 22.764,120.614 16.5,122.5C 16.5,121.5 16.5,120.5 16.5,119.5 Z"/></g>
</svg>
