<?xml version="1.0" encoding="UTF-8"?>
<!DOCTYPE svg PUBLIC "-//W3C//DTD SVG 1.1//EN" "http://www.w3.org/Graphics/SVG/1.1/DTD/svg11.dtd">
<svg xmlns="http://www.w3.org/2000/svg" version="1.1" width="128px" height="128px" style="shape-rendering:geometricPrecision; text-rendering:geometricPrecision; image-rendering:optimizeQuality; fill-rule:evenodd; clip-rule:evenodd" xmlns:xlink="http://www.w3.org/1999/xlink">
<g><path style="opacity:0.782" fill="#ffffff" d="M 101.5,-0.5 C 109.5,-0.5 117.5,-0.5 125.5,-0.5C 125.833,0.5 126.5,1.16667 127.5,1.5C 127.5,4.16667 127.5,6.83333 127.5,9.5C 126.312,10.6843 125.145,10.6843 124,9.5C 123.749,7.56702 123.249,5.73369 122.5,4C 116.509,3.50051 110.509,3.33385 104.5,3.5C 104.173,8.21369 104.507,12.8804 105.5,17.5C 110.833,19.1667 116.167,20.8333 121.5,22.5C 122.086,22.2907 122.586,21.9574 123,21.5C 123.497,19.1902 123.663,16.8568 123.5,14.5C 124.833,14.5 126.167,14.5 127.5,14.5C 127.5,17.8333 127.5,21.1667 127.5,24.5C 125.561,27.2764 123.061,27.943 120,26.5C 119.154,37.5527 117.821,48.5527 116,59.5C 115.058,62.9927 113.725,66.326 112,69.5C 109.833,71.4644 107.499,71.7978 105,70.5C 105.122,77.802 102.288,83.9686 96.5,89C 99.7999,99.6874 96.1333,106.187 85.5,108.5C 86.264,105.213 88.0973,102.546 91,100.5C 92.3088,98.2533 92.9755,95.9199 93,93.5C 89.4482,96.7191 85.6149,99.5524 81.5,102C 74.8507,104.043 69.8507,102.21 66.5,96.5C 55.3098,105.524 43.9765,114.358 32.5,123C 41.8333,123.667 51.1667,123.667 60.5,123C 62.9494,122.275 65.2827,121.275 67.5,120C 71.7424,115.923 76.4091,112.423 81.5,109.5C 83.2828,110.348 83.7828,111.681 83,113.5C 77.1883,118.306 71.3549,122.973 65.5,127.5C 49.5,127.5 33.5,127.5 17.5,127.5C 17.5,126.167 17.5,124.833 17.5,123.5C 20.6492,123.789 23.6492,123.289 26.5,122C 45.059,106.473 63.8923,91.3067 83,76.5C 84.3088,74.2533 84.9755,71.9199 85,69.5C 80.0456,74.4632 74.5456,78.6298 68.5,82C 62.2601,83.4635 57.7601,81.2968 55,75.5C 38,89.1667 21,102.833 4,116.5C 3.20293,122.693 6.03627,125.193 12.5,124C 13.6843,125.145 13.6843,126.312 12.5,127.5C 9.5,127.5 6.5,127.5 3.5,127.5C 1.83333,126.5 0.5,125.167 -0.5,123.5C -0.5,111.833 -0.5,100.167 -0.5,88.5C 1.93399,85.5624 4.60066,82.7291 7.5,80C 22.5,68.3333 37.5,56.6667 52.5,45C 57.0944,41.6255 62.0944,40.4588 67.5,41.5C 70.1889,46.652 69.3555,51.3187 65,55.5C 64.2025,57.2588 64.3691,58.9255 65.5,60.5C 71.098,56.0748 77.098,52.2414 83.5,49C 86.5,48.3333 89.5,48.3333 92.5,49C 93.1667,50.3333 93.8333,51.6667 94.5,53C 93.3039,57.3923 91.3039,61.3923 88.5,65C 89.2744,67.405 89.7744,69.905 90,72.5C 93.7765,70.0848 97.9432,68.9182 102.5,69C 100.586,67.5867 99.2531,65.7534 98.5,63.5C 101.195,59.9704 103.695,56.3037 106,52.5C 107.068,49.3957 107.901,46.229 108.5,43C 107.931,36.4954 107.264,29.9954 106.5,23.5C 103.308,23.1389 101.141,21.4722 100,18.5C 98.9699,11.9593 99.4699,5.62594 101.5,-0.5 Z M 112.5,25.5 C 113.805,27.3972 114.471,29.7305 114.5,32.5C 114.167,34.8333 113.833,37.1667 113.5,39.5C 112.507,34.8804 112.173,30.2137 112.5,25.5 Z M 61.5,45.5 C 62.5,45.5 63.5,45.5 64.5,45.5C 61.3108,53.2144 56.3108,59.7144 49.5,65C 47.3192,66.8403 44.8192,68.0069 42,68.5C 38.2606,68.0951 36.9273,66.0951 38,62.5C 45.1763,55.8084 53.0097,50.1418 61.5,45.5 Z M 111.5,50.5 C 112.096,56.0971 110.762,61.4304 107.5,66.5C 103.638,64.1331 103.804,61.7998 108,59.5C 109.664,56.6729 110.83,53.6729 111.5,50.5 Z M 87.5,52.5 C 88.2891,52.7828 88.9558,53.2828 89.5,54C 84.2881,62.2184 77.9548,69.5517 70.5,76C 65.4386,78.8339 61.7719,77.6672 59.5,72.5C 67.8406,64.34 77.174,57.6734 87.5,52.5 Z M 58.5,62.5 C 59.2724,64.5295 58.6057,66.3629 56.5,68C 38.9091,81.7129 21.4091,95.5462 4,109.5C 3.1227,102.751 3.45604,96.0839 5,89.5C 13.721,81.7745 22.721,74.4412 32,67.5C 38.2416,74.7574 45.0749,75.2574 52.5,69C 54.7059,66.9633 56.7059,64.7966 58.5,62.5 Z M 98.5,73.5 C 99.4972,73.4701 100.164,73.9701 100.5,75C 95.6367,82.8716 89.6367,89.8716 82.5,96C 79.1558,98.5526 75.8224,98.7193 72.5,96.5C 71.2404,94.6471 71.2404,92.8138 72.5,91C 80.5463,84.0983 89.213,78.2649 98.5,73.5 Z"/></g>
</svg>
