<?xml version="1.0" encoding="UTF-8"?>
<!DOCTYPE svg PUBLIC "-//W3C//DTD SVG 1.1//EN" "http://www.w3.org/Graphics/SVG/1.1/DTD/svg11.dtd">
<svg xmlns="http://www.w3.org/2000/svg" version="1.1" width="128px" height="128px" style="shape-rendering:geometricPrecision; text-rendering:geometricPrecision; image-rendering:optimizeQuality; fill-rule:evenodd; clip-rule:evenodd" xmlns:xlink="http://www.w3.org/1999/xlink">
<g><path style="opacity:0.824" fill="#000000" d="M 56.5,-0.5 C 60.1667,-0.5 63.8333,-0.5 67.5,-0.5C 72.2342,1.73934 75.4008,5.40601 77,10.5C 84.0317,17.1972 90.6984,24.1972 97,31.5C 98.9484,38.865 97.1151,45.0317 91.5,50C 90.552,50.4828 89.552,50.6495 88.5,50.5C 88.6658,55.1785 88.4992,59.8452 88,64.5C 87.1166,67.1024 85.6166,69.2691 83.5,71C 80.7513,72.1227 78.2513,73.6227 76,75.5C 75.1816,78.2272 75.3483,80.8938 76.5,83.5C 82.5381,85.5682 88.5381,87.7349 94.5,90C 107.087,96.679 112.087,107.179 109.5,121.5C 115.559,121.254 121.559,121.587 127.5,122.5C 127.5,124.167 127.5,125.833 127.5,127.5C 84.8333,127.5 42.1667,127.5 -0.5,127.5C -0.5,125.833 -0.5,124.167 -0.5,122.5C 5.44064,121.587 11.4406,121.254 17.5,121.5C 14.9133,107.179 19.9133,96.679 32.5,90C 38.4619,87.7349 44.4619,85.5682 50.5,83.5C 51.6517,80.8938 51.8184,78.2272 51,75.5C 47.4918,73.4129 44.1584,71.0796 41,68.5C 38.9554,64.0966 37.9554,59.4299 38,54.5C 28.6504,46.7356 25.9837,37.0689 30,25.5C 37.4264,15.2387 46.2598,6.572 56.5,-0.5 Z M 57.5,5.5 C 59.8333,5.5 62.1667,5.5 64.5,5.5C 63.6505,11.8722 60.4839,16.8722 55,20.5C 54.231,25.4781 56.0644,26.6448 60.5,24C 65.3123,20.1995 68.4789,15.3662 70,9.5C 72,12.8333 72,16.1667 70,19.5C 60.3333,29.1667 50.6667,38.8333 41,48.5C 34.4492,42.734 32.7825,35.734 36,27.5C 42.6988,19.6354 49.8655,12.3021 57.5,5.5 Z M 76.5,19.5 C 81.8299,23.9969 86.6632,28.9969 91,34.5C 92.2016,38.7929 91.0349,42.2929 87.5,45C 86.5,45.6667 85.5,45.6667 84.5,45C 79.3182,39.9853 74.3182,34.8186 69.5,29.5C 72.6629,26.6831 74.9962,23.3498 76.5,19.5 Z M 63.5,34.5 C 69.7577,39.4174 75.7577,44.7508 81.5,50.5C 82.6599,54.4589 82.8265,58.4589 82,62.5C 76.8112,67.8546 70.6446,71.8546 63.5,74.5C 56.7875,71.7281 50.6209,68.0614 45,63.5C 43.8756,60.5576 43.5423,57.5576 44,54.5C 50.7027,47.9648 57.2027,41.2982 63.5,34.5 Z M 57.5,79.5 C 61.4841,80.7425 65.4841,80.7425 69.5,79.5C 68.7046,83.594 70.038,86.7607 73.5,89C 82.1283,91.5388 90.295,95.0388 98,99.5C 103.071,105.91 104.904,113.244 103.5,121.5C 100.5,121.5 97.5,121.5 94.5,121.5C 96.9543,103.468 89.2876,96.9675 71.5,102C 70.4464,103.388 70.2797,104.888 71,106.5C 76.083,107.307 81.2497,107.807 86.5,108C 87,108.5 87.5,109 88,109.5C 88.4988,113.486 88.6655,117.486 88.5,121.5C 71.8333,121.5 55.1667,121.5 38.5,121.5C 38.3345,117.486 38.5012,113.486 39,109.5C 39.5,109 40,108.5 40.5,108C 45.7503,107.807 50.917,107.307 56,106.5C 56.7203,104.888 56.5536,103.388 55.5,102C 37.7124,96.9675 30.0457,103.468 32.5,121.5C 29.1667,121.5 25.8333,121.5 22.5,121.5C 21.04,109.246 25.7066,100.413 36.5,95C 42.2422,93.1971 47.9089,91.1971 53.5,89C 56.6201,86.5923 57.9534,83.4257 57.5,79.5 Z"/></g>
<g><path style="opacity:0.631" fill="#000000" d="M 49.5,25.5 C 53.054,25.6584 54.3873,27.3251 53.5,30.5C 48.7329,31.8987 47.3996,30.232 49.5,25.5 Z"/></g>
<g><path style="opacity:0.782" fill="#000000" d="M 22.5,45.5 C 26.0714,45.4077 27.2381,47.0743 26,50.5C 24.4916,52.0174 23.6583,53.8507 23.5,56C 25.9692,59.6124 27.6359,63.6124 28.5,68C 28.6772,71.8312 27.0105,74.3312 23.5,75.5C 21.8333,75.1667 20.8333,74.1667 20.5,72.5C 23.0791,67.9317 22.2458,63.9317 18,60.5C 16.3772,54.4318 17.8772,49.4318 22.5,45.5 Z"/></g>
<g><path style="opacity:0.78" fill="#000000" d="M 127.5,63.5 C 127.5,66.5 127.5,69.5 127.5,72.5C 126.072,75.4005 123.906,76.0671 121,74.5C 121.128,71.5144 121.128,68.5144 121,65.5C 114.926,58.8585 115.093,52.3585 121.5,46C 123.949,45.2246 125.616,46.058 126.5,48.5C 124.949,50.8844 123.615,53.3844 122.5,56C 123.812,58.807 125.479,61.307 127.5,63.5 Z"/></g>
<g><path style="opacity:0.78" fill="#000000" d="M -0.5,70.5 C -0.5,67.5 -0.5,64.5 -0.5,61.5C 0.689603,59.6455 2.02294,57.8121 3.5,56C 7.66667,54.8333 9.16667,56.3333 8,60.5C 6.49163,62.0174 5.6583,63.8507 5.5,66C 7.95898,69.5949 9.62565,73.5949 10.5,78C 10.2695,80.6998 9.26955,83.0332 7.5,85C 5.0507,85.7754 3.38403,84.942 2.5,82.5C 3.30396,81.0589 3.97063,79.5589 4.5,78C 3.37734,75.061 1.71067,72.561 -0.5,70.5 Z"/></g>
<g><path style="opacity:0.775" fill="#000000" d="M 103.5,55.5 C 105.958,55.2275 107.625,56.2275 108.5,58.5C 106.949,60.8844 105.615,63.3844 104.5,66C 105.868,68.5666 107.368,71.0666 109,73.5C 109.837,77.2946 109.504,80.9613 108,84.5C 106.333,85.8333 104.667,85.8333 103,84.5C 104.546,79.5637 103.546,75.2303 100,71.5C 97.4165,65.3304 98.5832,59.9971 103.5,55.5 Z"/></g>
<g><path style="opacity:0.745" fill="#000000" d="M 58.5,60.5 C 61.8499,60.335 65.1832,60.5017 68.5,61C 69.8602,62.9376 69.5268,64.6043 67.5,66C 64.8333,66.6667 62.1667,66.6667 59.5,66C 57.3652,64.4443 57.0319,62.6109 58.5,60.5 Z"/></g>
<g><path style="opacity:0.656" fill="#000000" d="M 62.5,101.5 C 66.35,101.701 67.35,103.534 65.5,107C 62.8882,107.741 61.2215,106.741 60.5,104C 61.3805,103.292 62.0472,102.458 62.5,101.5 Z"/></g>
</svg>
