<?xml version="1.0" encoding="UTF-8"?>
<!DOCTYPE svg PUBLIC "-//W3C//DTD SVG 1.1//EN" "http://www.w3.org/Graphics/SVG/1.1/DTD/svg11.dtd">
<svg xmlns="http://www.w3.org/2000/svg" version="1.1" width="128px" height="128px" style="shape-rendering:geometricPrecision; text-rendering:geometricPrecision; image-rendering:optimizeQuality; fill-rule:evenodd; clip-rule:evenodd" xmlns:xlink="http://www.w3.org/1999/xlink">
<g><path style="opacity:0.818" fill="#ffffff" d="M 18.5,-0.5 C 20.1667,-0.5 21.8333,-0.5 23.5,-0.5C 25.0261,4.04416 28.0261,7.21083 32.5,9C 35.6467,13.048 34.6467,15.7146 29.5,17C 26.8941,18.9384 25.0608,21.4384 24,24.5C 21.7328,25.9348 19.7328,25.6015 18,23.5C 16.3333,19.1667 13.3333,16.1667 9,14.5C 8.20245,12.7412 8.36912,11.0745 9.5,9.5C 14.624,8.04426 17.624,4.71093 18.5,-0.5 Z M 20.5,9.5 C 21.9311,10.0819 23.2644,10.9152 24.5,12C 23.3333,13.1667 22.1667,14.3333 21,15.5C 20.3551,14.354 19.5217,13.354 18.5,12.5C 19.6119,11.7348 20.2786,10.7348 20.5,9.5 Z"/></g>
<g><path style="opacity:0.828" fill="#ffffff" d="M 36.5,127.5 C 34.8333,127.5 33.1667,127.5 31.5,127.5C 30.3441,103.239 30.1774,78.9057 31,54.5C 31.93,46.3083 35.2634,39.3083 41,33.5C 40.3854,24.7704 43.5521,17.9371 50.5,13C 60.7341,11.3828 71.0675,11.0495 81.5,12C 90.6216,16.6465 94.4549,24.1465 93,34.5C 98.116,40.1686 101.116,46.8353 102,54.5C 102.667,65.1667 102.667,75.8333 102,86.5C 100.301,87.4061 98.4672,87.7394 96.5,87.5C 96.6665,76.8281 96.4998,66.1615 96,55.5C 95.2606,51.6148 93.9272,47.9481 92,44.5C 91.7235,52.5359 91.0568,60.5359 90,68.5C 83.2991,84.4077 71.7991,89.2411 55.5,83C 49.3592,79.5285 45.5259,74.3618 44,67.5C 43.4754,59.1552 42.8087,50.8219 42,42.5C 39.3399,46.8139 37.6732,51.4805 37,56.5C 36.5,80.1643 36.3334,103.831 36.5,127.5 Z M 55.5,17.5 C 63.5069,17.3336 71.5069,17.5003 79.5,18C 82.7284,19.5629 84.8951,22.0629 86,25.5C 86.132,39.5263 85.4654,53.5263 84,67.5C 78.9275,78.1915 70.7608,81.6915 59.5,78C 54.4488,75.2801 51.2822,71.1135 50,65.5C 49.2163,53.3222 48.3829,41.1556 47.5,29C 48.3481,23.7731 51.0147,19.9398 55.5,17.5 Z"/></g>
<g><path style="opacity:0.813" fill="#ffffff" d="M 127.5,25.5 C 127.5,26.5 127.5,27.5 127.5,28.5C 122.812,30.5927 119.312,33.926 117,38.5C 114.966,41.859 112.632,42.1924 110,39.5C 108.833,34.3333 105.667,31.1667 100.5,30C 97.8333,28 97.8333,26 100.5,24C 105.667,22.8333 108.833,19.6667 110,14.5C 112.632,11.8076 114.966,12.141 117,15.5C 119.312,20.074 122.812,23.4073 127.5,25.5 Z M 112.5,22.5 C 113.972,24.1343 115.638,25.6343 117.5,27C 115.667,28.1667 114.167,29.6667 113,31.5C 112.167,29.3333 110.667,27.8333 108.5,27C 110.751,26.2525 112.084,24.7525 112.5,22.5 Z"/></g>
<g><path style="opacity:0.818" fill="#ffffff" d="M -0.5,75.5 C -0.5,74.1667 -0.5,72.8333 -0.5,71.5C 5.01037,70.2373 8.67703,66.904 10.5,61.5C 11.3279,60.5853 12.3279,59.9186 13.5,59.5C 17.3527,65.1849 22.0193,70.0182 27.5,74C 27.2409,75.2613 26.5742,76.2613 25.5,77C 23.3359,77.9143 21.3359,79.081 19.5,80.5C 18.6397,83.9322 16.6397,86.2656 13.5,87.5C 11.9707,87.4712 10.804,86.8045 10,85.5C 7.94682,80.6127 4.44682,77.2794 -0.5,75.5 Z M 12.5,70.5 C 14.2687,71.4214 15.9354,72.5881 17.5,74C 15.6969,74.6368 14.3636,75.8035 13.5,77.5C 12.6364,75.8035 11.3031,74.6368 9.5,74C 11.0629,73.2411 12.0629,72.0744 12.5,70.5 Z"/></g>
<g><path style="opacity:0.664" fill="#ffffff" d="M 97.5,92.5 C 102.587,92.2845 103.587,94.1178 100.5,98C 96.5369,98.1177 95.5369,96.2843 97.5,92.5 Z"/></g>
<g><path style="opacity:0.804" fill="#ffffff" d="M 57.5,98.5 C 63.8682,98.1703 70.2015,98.5037 76.5,99.5C 77.8587,101.306 77.5254,102.806 75.5,104C 69.8333,104.667 64.1667,104.667 58.5,104C 57.5939,102.301 57.2606,100.467 57.5,98.5 Z"/></g>
<g><path style="opacity:0.815" fill="#ffffff" d="M 101.5,127.5 C 99.8333,127.5 98.1667,127.5 96.5,127.5C 96.3336,119.493 96.5003,111.493 97,103.5C 98.9376,102.14 100.604,102.473 102,104.5C 102.798,112.246 102.631,119.913 101.5,127.5 Z"/></g>
<g><path style="opacity:0.816" fill="#ffffff" d="M 54.5,108.5 C 62.84,108.334 71.1733,108.5 79.5,109C 81.5254,110.194 81.8587,111.694 80.5,113.5C 71.5246,114.498 62.5246,114.832 53.5,114.5C 53.3253,112.379 53.6586,110.379 54.5,108.5 Z"/></g>
</svg>
