<?xml version="1.0" encoding="UTF-8"?>
<!DOCTYPE svg PUBLIC "-//W3C//DTD SVG 1.1//EN" "http://www.w3.org/Graphics/SVG/1.1/DTD/svg11.dtd">
<svg xmlns="http://www.w3.org/2000/svg" version="1.1" width="128px" height="128px" style="shape-rendering:geometricPrecision; text-rendering:geometricPrecision; image-rendering:optimizeQuality; fill-rule:evenodd; clip-rule:evenodd" xmlns:xlink="http://www.w3.org/1999/xlink">
<g><path style="opacity:0.818" fill="#000000" d="M 43.5,3.5 C 54.2263,2.02267 63.7263,4.68933 72,11.5C 71.8877,9.82168 71.3877,8.15501 70.5,6.5C 70.6082,5.55805 70.9415,4.72472 71.5,4C 74.8217,4.4051 78.1551,5.23844 81.5,6.5C 85.0384,4.94647 88.705,3.94647 92.5,3.5C 92.0535,7.29497 91.0535,10.9616 89.5,14.5C 91.0535,18.0384 92.0535,21.705 92.5,25.5C 89.1379,25.9305 86.3046,24.9305 84,22.5C 83.8333,22.8333 83.6667,23.1667 83.5,23.5C 90.4643,29.5509 93.631,37.2176 93,46.5C 94.7889,44.771 96.9556,44.1043 99.5,44.5C 99.0748,48.2846 98.0748,51.9512 96.5,55.5C 98.266,58.6679 99.0994,62.0012 99,65.5C 96.1883,66.5371 93.6883,65.8704 91.5,63.5C 88.7716,69.2764 85.2716,74.6097 81,79.5C 79.9495,89.2672 75.9495,97.6005 69,104.5C 68.3333,108.5 68.3333,112.5 69,116.5C 72.1435,119.625 71.9769,122.291 68.5,124.5C 67.3279,124.081 66.3279,123.415 65.5,122.5C 63.4368,118.395 62.1035,114.062 61.5,109.5C 54.8333,113.5 48.1667,113.5 41.5,109.5C 41.5407,115.572 39.374,120.572 35,124.5C 33.5,123.667 32.3333,122.5 31.5,121C 36.4682,111.843 35.3015,103.676 28,96.5C 25.6183,89.6499 21.9517,83.6499 17,78.5C 11.7802,71.2127 10.2802,63.2127 12.5,54.5C 10.3665,49.0739 10.0332,43.5739 11.5,38C 9.54362,38.2218 7.71029,39.0552 6,40.5C 4.60258,39.7741 3.76924,38.6075 3.5,37C 4.75893,34.4729 5.75893,31.8062 6.5,29C 5.64407,26.1203 4.64407,23.287 3.5,20.5C 5.22372,16.8361 7.55706,16.6695 10.5,20C 21.0921,20.2027 29.4254,15.8693 35.5,7C 38.3093,5.9066 40.976,4.73993 43.5,3.5 Z M 77.5,48.5 C 74.071,43.2356 69.7376,38.7356 64.5,35C 57.6641,31.6105 50.6641,28.6105 43.5,26C 40.0733,23.2436 37.4066,19.9103 35.5,16C 41.6633,9.59881 48.9966,7.59881 57.5,10C 63.07,11.943 67.7366,15.1097 71.5,19.5C 69.439,24.6028 70.939,26.2695 76,24.5C 79.3333,28.5 82.6667,32.5 86,36.5C 86.6735,39.5214 87.0068,42.5214 87,45.5C 86.586,45.9574 86.086,46.2907 85.5,46.5C 83.3684,44.8826 81.0351,44.3826 78.5,45C 77.6634,46.0113 77.33,47.1779 77.5,48.5 Z M 79.5,12.5 C 80.8333,12.5 82.1667,12.5 83.5,12.5C 83.5,13.8333 83.5,15.1667 83.5,16.5C 82.1667,16.5 80.8333,16.5 79.5,16.5C 79.5,15.1667 79.5,13.8333 79.5,12.5 Z M 29.5,20.5 C 32.4036,24.0704 35.7369,27.4037 39.5,30.5C 39.0422,34.5009 39.5422,38.5009 41,42.5C 41.3459,44.8477 42.5125,46.6811 44.5,48C 40.0841,50.4117 36.2508,53.5783 33,57.5C 29.3969,63.7068 26.0636,70.0402 23,76.5C 17.9533,70.7338 16.2866,64.0671 18,56.5C 25.4607,52.7054 31.294,47.2054 35.5,40C 34.7379,37.0331 33.0712,36.1998 30.5,37.5C 27.4463,42.8871 23.113,46.8871 17.5,49.5C 16.1427,45.4172 16.3093,41.4172 18,37.5C 20.0563,39.3188 22.2229,39.9855 24.5,39.5C 25.7598,36.8634 25.2598,34.5301 23,32.5C 22.3333,30.8333 22.3333,29.1667 23,27.5C 24.728,24.6703 26.8947,22.337 29.5,20.5 Z M 12.5,26.5 C 13.8333,26.5 15.1667,26.5 16.5,26.5C 16.5,27.8333 16.5,29.1667 16.5,30.5C 15.1667,30.5 13.8333,30.5 12.5,30.5C 12.5,29.1667 12.5,27.8333 12.5,26.5 Z M 46.5,33.5 C 58.5071,36.4901 67.5071,43.3234 73.5,54C 76.838,55.2064 78.6713,54.0397 79,50.5C 81.0955,55.0185 80.5955,59.3518 77.5,63.5C 78.285,66.1531 79.785,66.8198 82,65.5C 82.4363,67.9362 81.603,69.9362 79.5,71.5C 72.5409,60.3734 63.2075,51.8734 51.5,46C 46.5605,42.9776 44.8938,38.8109 46.5,33.5 Z M 48.5,52.5 C 61.775,57.1083 70.775,66.1083 75.5,79.5C 73.0691,93.5904 65.0691,102.59 51.5,106.5C 39.1193,103.118 31.4527,95.1175 28.5,82.5C 30.8776,69.4878 37.5442,59.4878 48.5,52.5 Z M 86.5,53.5 C 87.8333,53.5 89.1667,53.5 90.5,53.5C 90.5,54.8333 90.5,56.1667 90.5,57.5C 89.1667,57.5 87.8333,57.5 86.5,57.5C 86.5,56.1667 86.5,54.8333 86.5,53.5 Z"/></g>
<g><path style="opacity:0.832" fill="#000000" d="M 104.5,80.5 C 108.182,79.7253 110.682,81.0586 112,84.5C 114.867,89.0993 116.034,94.0993 115.5,99.5C 118.505,99.253 121.005,100.253 123,102.5C 128.104,121.066 121.104,128.399 102,124.5C 82.8837,128.388 75.8837,121.055 81,102.5C 83.1962,99.8748 86.0295,98.8748 89.5,99.5C 90.5043,91.7277 95.0043,88.061 103,88.5C 103.869,85.9031 104.369,83.2364 104.5,80.5 Z M 108.5,91.5 C 109.473,93.9479 109.806,96.6146 109.5,99.5C 104.833,99.5 100.167,99.5 95.5,99.5C 95.281,98.325 95.6143,97.325 96.5,96.5C 98.7759,95.7868 101.109,95.2868 103.5,95C 105.584,94.3028 107.251,93.1361 108.5,91.5 Z M 87.5,104.5 C 97.1724,104.334 106.839,104.5 116.5,105C 117,105.5 117.5,106 118,106.5C 118.667,109.833 118.667,113.167 118,116.5C 117.5,117 117,117.5 116.5,118C 106.833,118.667 97.1667,118.667 87.5,118C 84.8665,113.501 84.8665,109.001 87.5,104.5 Z"/></g>
<g><path style="opacity:0.766" fill="#000000" d="M 91.5,108.5 C 98.5079,108.334 105.508,108.5 112.5,109C 114.527,110.396 114.86,112.062 113.5,114C 105.833,114.667 98.1667,114.667 90.5,114C 89.2427,111.924 89.576,110.09 91.5,108.5 Z"/></g>
</svg>
