<?xml version="1.0" encoding="UTF-8"?>
<!DOCTYPE svg PUBLIC "-//W3C//DTD SVG 1.1//EN" "http://www.w3.org/Graphics/SVG/1.1/DTD/svg11.dtd">
<svg xmlns="http://www.w3.org/2000/svg" version="1.1" width="128px" height="128px" style="shape-rendering:geometricPrecision; text-rendering:geometricPrecision; image-rendering:optimizeQuality; fill-rule:evenodd; clip-rule:evenodd" xmlns:xlink="http://www.w3.org/1999/xlink">
<g><path style="opacity:0.745" fill="#ffffff" d="M -0.5,6.5 C 7.35385,5.91138 15.0205,6.74472 22.5,9C 37.6179,15.3921 52.6179,22.0587 67.5,29C 68.8198,31.215 68.1531,32.715 65.5,33.5C 49.291,26.0418 32.9577,18.8751 16.5,12C 10.7521,11.788 5.08546,11.288 -0.5,10.5C -0.5,9.16667 -0.5,7.83333 -0.5,6.5 Z"/></g>
<g><path style="opacity:0.819" fill="#ffffff" d="M 127.5,14.5 C 127.5,15.8333 127.5,17.1667 127.5,18.5C 125.833,18.5 124.167,18.5 122.5,18.5C 122.5,20.8333 122.5,23.1667 122.5,25.5C 121.167,25.5 119.833,25.5 118.5,25.5C 118.5,23.1667 118.5,20.8333 118.5,18.5C 116.833,18.5 115.167,18.5 113.5,18.5C 112.833,14.5 114.5,12.8333 118.5,13.5C 118.5,11.1667 118.5,8.83333 118.5,6.5C 119.833,6.5 121.167,6.5 122.5,6.5C 122.5,8.83333 122.5,11.1667 122.5,13.5C 124.292,13.366 125.958,13.6993 127.5,14.5 Z"/></g>
<g><path style="opacity:0.752" fill="#ffffff" d="M 88.5,15.5 C 97.6465,14.4552 100.313,17.9552 96.5,26C 87.0121,27.9979 84.3454,24.4979 88.5,15.5 Z M 91.5,20.5 C 93.337,20.6395 93.6704,21.3061 92.5,22.5C 91.7025,22.0431 91.3691,21.3764 91.5,20.5 Z"/></g>
<g><path style="opacity:0.772" fill="#ffffff" d="M 71.5,31.5 C 85.0174,36.2859 98.1841,41.9526 111,48.5C 111.862,50.087 112.529,51.7536 113,53.5C 113.667,68.8333 113.667,84.1667 113,99.5C 111.951,101.107 110.451,101.773 108.5,101.5C 109.083,105.337 109.75,109.17 110.5,113C 110.167,114.167 109.833,115.333 109.5,116.5C 104.313,118.492 100.146,117.159 97,112.5C 96.7744,115.095 96.2744,117.595 95.5,120C 92.8333,120.667 90.1667,120.667 87.5,120C 83.7012,117.203 80.2012,114.036 77,110.5C 72.6729,101.186 69.3395,91.5188 67,81.5C 65,78.8333 63,76.1667 61,73.5C 64.2456,87.6498 67.7456,101.817 71.5,116C 71.4411,117.436 71.1078,118.769 70.5,120C 60.1726,119.712 53.0059,114.545 49,104.5C 47.3973,99.8588 45.8973,95.1921 44.5,90.5C 45.6685,88.7826 47.3352,88.1159 49.5,88.5C 50.603,95.7033 53.103,102.37 57,108.5C 57.4123,104.509 59.2456,101.342 62.5,99C 59.0114,87.7121 55.678,76.3788 52.5,65C 54.4427,61.2641 56.9427,60.7641 60,63.5C 63.2853,68.4537 66.952,73.1203 71,77.5C 73.2966,88.3729 76.9633,98.7062 82,108.5C 82.4123,104.509 84.2456,101.342 87.5,99C 84.7471,90.1602 81.9138,81.3269 79,72.5C 73.9749,66.3089 69.1416,59.9755 64.5,53.5C 64.9996,52.1195 65.9996,51.4528 67.5,51.5C 73.4523,57.3785 78.9523,63.7119 84,70.5C 86.8725,81.7842 90.5392,92.7842 95,103.5C 95.3333,103.833 95.6667,104.167 96,104.5C 96.6998,100.934 98.5332,98.1005 101.5,96C 98.7729,87.262 96.2729,78.4286 94,69.5C 89.7193,62.8854 85.0526,56.5521 80,50.5C 77.8008,46.9358 76.3008,43.1025 75.5,39C 74.9019,37.6988 73.9019,36.8655 72.5,36.5C 71.5481,34.9547 71.2148,33.288 71.5,31.5 Z M 81.5,40.5 C 90.8145,43.9075 99.6478,48.2408 108,53.5C 108.5,62.4938 108.666,71.4938 108.5,80.5C 106.097,80.393 104.264,81.393 103,83.5C 101.13,77.5577 99.4638,71.5577 98,65.5C 93.3333,59.5 88.6667,53.5 84,47.5C 82.5886,45.3496 81.7553,43.0163 81.5,40.5 Z M 107.5,85.5 C 108.808,89.0187 108.808,92.6853 107.5,96.5C 105.073,92.906 105.073,89.2394 107.5,85.5 Z M 101.5,102.5 C 102.931,102.881 103.764,103.881 104,105.5C 105.039,107.901 105.206,110.234 104.5,112.5C 102.296,109.553 101.296,106.22 101.5,102.5 Z M 62.5,105.5 C 63.5862,105.62 64.2528,106.287 64.5,107.5C 65.0124,109.884 65.6791,112.217 66.5,114.5C 66.1667,114.833 65.8333,115.167 65.5,115.5C 63.024,112.717 62.024,109.384 62.5,105.5 Z M 87.5,105.5 C 89.5728,108.043 90.9062,111.043 91.5,114.5C 91.1667,114.833 90.8333,115.167 90.5,115.5C 88.024,112.717 87.024,109.384 87.5,105.5 Z"/></g>
<g><path style="opacity:0.753" fill="#ffffff" d="M -0.5,34.5 C 0.833333,34.5 2.16667,34.5 3.5,34.5C 3.57033,41.5537 6.23699,47.387 11.5,52C 21.9555,56.9785 32.4555,61.8118 43,66.5C 44.9844,72.4296 46.3177,78.4296 47,84.5C 45.6667,85.8333 44.3333,85.8333 43,84.5C 41.7269,79.5682 40.2269,74.7349 38.5,70C 28.4653,65.3259 18.4653,60.6593 8.5,56C 4.1179,52.7009 1.1179,48.5343 -0.5,43.5C -0.5,40.5 -0.5,37.5 -0.5,34.5 Z"/></g>
<g><path style="opacity:0.725" fill="#ffffff" d="M 28.5,38.5 C 29.8221,38.33 30.9887,38.6634 32,39.5C 32.4955,41.4727 32.6621,43.4727 32.5,45.5C 36.3428,45.1908 37.6761,46.6908 36.5,50C 35.2068,50.49 33.8734,50.6567 32.5,50.5C 32.6633,52.8568 32.4966,55.1902 32,57.5C 30.6667,58.8333 29.3333,58.8333 28,57.5C 27.5034,55.1902 27.3367,52.8568 27.5,50.5C 25.0516,50.9899 23.385,50.1566 22.5,48C 23.619,46.124 25.2856,45.2907 27.5,45.5C 27.298,43.0504 27.6314,40.717 28.5,38.5 Z"/></g>
<g><path style="opacity:0.809" fill="#ffffff" d="M -0.5,84.5 C -0.5,83.1667 -0.5,81.8333 -0.5,80.5C 1.04181,79.6993 2.70848,79.366 4.5,79.5C 4.5,77.1667 4.5,74.8333 4.5,72.5C 5.83333,72.5 7.16667,72.5 8.5,72.5C 8.5,74.8333 8.5,77.1667 8.5,79.5C 12.5,78.8333 14.1667,80.5 13.5,84.5C 11.8333,84.5 10.1667,84.5 8.5,84.5C 8.9984,87.6808 8.16506,90.3475 6,92.5C 4.62527,90.0632 4.12527,87.3965 4.5,84.5C 2.83333,84.5 1.16667,84.5 -0.5,84.5 Z"/></g>
<g><path style="opacity:0.765" fill="#ffffff" d="M 23.5,83.5 C 28.7134,82.7617 31.7134,84.9284 32.5,90C 31.4578,95.0232 28.4578,96.6899 23.5,95C 19.5422,91.2151 19.5422,87.3817 23.5,83.5 Z M 25.5,88.5 C 27.337,88.6395 27.6704,89.3061 26.5,90.5C 25.7025,90.0431 25.3691,89.3764 25.5,88.5 Z"/></g>
</svg>
