<?xml version="1.0" encoding="UTF-8"?>
<!DOCTYPE svg PUBLIC "-//W3C//DTD SVG 1.1//EN" "http://www.w3.org/Graphics/SVG/1.1/DTD/svg11.dtd">
<svg xmlns="http://www.w3.org/2000/svg" version="1.1" width="128px" height="128px" style="shape-rendering:geometricPrecision; text-rendering:geometricPrecision; image-rendering:optimizeQuality; fill-rule:evenodd; clip-rule:evenodd" xmlns:xlink="http://www.w3.org/1999/xlink">
<g><path style="opacity:0.811" fill="#000000" d="M 22.5,-0.5 C 26.5,-0.5 30.5,-0.5 34.5,-0.5C 38.4276,1.59151 41.5943,4.59151 44,8.5C 46.0818,15.0529 47.0818,21.7196 47,28.5C 43.6022,33.723 40.4356,39.0564 37.5,44.5C 50.0221,47.19 54.6888,54.8566 51.5,67.5C 75.8356,67.3334 100.169,67.5 124.5,68C 125.691,68.6979 126.691,69.5313 127.5,70.5C 127.5,84.5 127.5,98.5 127.5,112.5C 126.206,113.29 125.039,114.29 124,115.5C 123.667,118.5 123.333,121.5 123,124.5C 122.302,125.691 121.469,126.691 120.5,127.5C 111.5,127.5 102.5,127.5 93.5,127.5C 93.5,121.167 93.5,114.833 93.5,108.5C 95.5,108.5 97.5,108.5 99.5,108.5C 99.5,113.167 99.5,117.833 99.5,122.5C 101.833,122.5 104.167,122.5 106.5,122.5C 106.5,115.833 106.5,109.167 106.5,102.5C 108.167,102.5 109.833,102.5 111.5,102.5C 111.5,109.167 111.5,115.833 111.5,122.5C 113.833,122.5 116.167,122.5 118.5,122.5C 119.015,118.204 117.848,114.537 115,111.5C 114.667,101.5 114.333,91.5 114,81.5C 113.333,80.1667 112.667,80.1667 112,81.5C 111.667,86.1667 111.333,90.8333 111,95.5C 107.392,100.02 103.559,100.353 99.5,96.5C 98.9199,92.4363 98.0865,88.4363 97,84.5C 96.3333,85.1667 95.6667,85.8333 95,86.5C 94.6667,91.8333 94.3333,97.1667 94,102.5C 89.2032,106.802 85.2032,106.136 82,100.5C 81.5004,93.8417 81.3337,87.175 81.5,80.5C 80.5,80.5 79.5,80.5 78.5,80.5C 78.5,88.1667 78.5,95.8333 78.5,103.5C 76.8333,103.5 75.1667,103.5 73.5,103.5C 73.5,95.8333 73.5,88.1667 73.5,80.5C 71.8333,80.5 70.1667,80.5 68.5,80.5C 68.5,88.1667 68.5,95.8333 68.5,103.5C 66.8333,103.5 65.1667,103.5 63.5,103.5C 63.5,95.8333 63.5,88.1667 63.5,80.5C 60.8333,80.5 58.1667,80.5 55.5,80.5C 55.5,88.1667 55.5,95.8333 55.5,103.5C 53.8333,103.5 52.1667,103.5 50.5,103.5C 50.5,95.8333 50.5,88.1667 50.5,80.5C 48.8333,80.5 47.1667,80.5 45.5,80.5C 45.5,88.1667 45.5,95.8333 45.5,103.5C 43.8333,103.5 42.1667,103.5 40.5,103.5C 40.5,95.8333 40.5,88.1667 40.5,80.5C 38.1667,80.5 35.8333,80.5 33.5,80.5C 33.5,96.1667 33.5,111.833 33.5,127.5C 24.5,127.5 15.5,127.5 6.5,127.5C 5.53128,126.691 4.69794,125.691 4,124.5C 3.50009,109.837 3.33342,95.1705 3.5,80.5C 2.16667,80.5 0.833333,80.5 -0.5,80.5C -0.5,76.1667 -0.5,71.8333 -0.5,67.5C 1.5,67.5 3.5,67.5 5.5,67.5C 2.31123,54.8566 6.9779,47.19 19.5,44.5C 17.6709,39.5182 14.8376,35.1849 11,31.5C 9.12053,22.8823 10.1205,14.549 14,6.5C 16.4412,3.54644 19.2745,1.21311 22.5,-0.5 Z M 36.5,8.5 C 30.531,7.2923 24.8644,7.2923 19.5,8.5C 23.114,4.83451 27.4473,3.66784 32.5,5C 34.3237,5.65999 35.657,6.82665 36.5,8.5 Z M 24.5,12.5 C 32.402,11.6997 38.2353,14.6997 42,21.5C 42.6667,23.1667 42.6667,24.8333 42,26.5C 41.5172,25.552 41.3505,24.552 41.5,23.5C 34.7224,23.5279 28.8891,21.1945 24,16.5C 19.5476,18.2597 19.381,20.4264 23.5,23C 20.854,23.4974 18.1873,23.6641 15.5,23.5C 13.7399,25.6135 14.2399,23.6135 17,17.5C 19.4795,15.6859 21.9795,14.0192 24.5,12.5 Z M 29.5,26.5 C 31.588,27.9395 33.9214,28.6061 36.5,28.5C 37.7963,35.8579 34.9629,40.5245 28,42.5C 21.3838,40.1018 19.2171,35.6018 21.5,29C 24.4568,28.7206 27.1234,27.8873 29.5,26.5 Z M 24.5,46.5 C 27.0024,47.7785 29.5024,47.7785 32,46.5C 32.4828,47.448 32.6495,48.448 32.5,49.5C 36.9474,49.9862 41.1141,51.3196 45,53.5C 46.3789,58.036 46.8789,62.7027 46.5,67.5C 44.8333,67.5 43.1667,67.5 41.5,67.5C 41.5,63.1667 41.5,58.8333 41.5,54.5C 32.8333,54.5 24.1667,54.5 15.5,54.5C 15.5,58.8333 15.5,63.1667 15.5,67.5C 13.8333,67.5 12.1667,67.5 10.5,67.5C 10.1211,62.7027 10.6211,58.036 12,53.5C 15.8859,51.3196 20.0526,49.9862 24.5,49.5C 24.5,48.5 24.5,47.5 24.5,46.5 Z M 20.5,59.5 C 25.8333,59.5 31.1667,59.5 36.5,59.5C 36.5,62.1667 36.5,64.8333 36.5,67.5C 31.1667,67.5 25.8333,67.5 20.5,67.5C 20.5,64.8333 20.5,62.1667 20.5,59.5 Z M 4.5,72.5 C 30.1667,72.5 55.8333,72.5 81.5,72.5C 81.5,73.5 81.5,74.5 81.5,75.5C 55.8333,75.5 30.1667,75.5 4.5,75.5C 4.5,74.5 4.5,73.5 4.5,72.5 Z M 86.5,72.5 C 98.5,72.5 110.5,72.5 122.5,72.5C 122.832,85.1842 122.499,97.8508 121.5,110.5C 120.914,110.291 120.414,109.957 120,109.5C 119.667,99.1667 119.333,88.8333 119,78.5C 115.685,74.8947 112.018,74.5614 108,77.5C 106.776,82.3859 106.109,87.3859 106,92.5C 105.586,92.9574 105.086,93.2907 104.5,93.5C 103.847,89.7652 103.014,86.0985 102,82.5C 96.587,77.8466 92.587,78.8466 90,85.5C 89.8283,90.2018 89.3283,94.8685 88.5,99.5C 87.914,99.2907 87.414,98.9574 87,98.5C 86.5002,89.8397 86.3336,81.1731 86.5,72.5 Z M 8.5,80.5 C 10.8333,80.5 13.1667,80.5 15.5,80.5C 15.5,94.5 15.5,108.5 15.5,122.5C 13.1667,122.5 10.8333,122.5 8.5,122.5C 8.5,108.5 8.5,94.5 8.5,80.5 Z M 20.5,80.5 C 22.8333,80.5 25.1667,80.5 27.5,80.5C 27.5,94.5 27.5,108.5 27.5,122.5C 25.1667,122.5 22.8333,122.5 20.5,122.5C 20.5,108.5 20.5,94.5 20.5,80.5 Z M 45.5,111.5 C 57.5,111.5 69.5,111.5 81.5,111.5C 81.5,112.5 81.5,113.5 81.5,114.5C 69.5,114.5 57.5,114.5 45.5,114.5C 45.5,113.5 45.5,112.5 45.5,111.5 Z M 41.5,119.5 C 56.1667,119.5 70.8333,119.5 85.5,119.5C 85.5,120.5 85.5,121.5 85.5,122.5C 70.8333,122.5 56.1667,122.5 41.5,122.5C 41.5,121.5 41.5,120.5 41.5,119.5 Z"/></g>
<g><path style="opacity:0.769" fill="#000000" d="M 93.5,-0.5 C 95.5,-0.5 97.5,-0.5 99.5,-0.5C 99.162,1.85398 98.662,4.18732 98,6.5C 95.3795,9.57577 92.8795,12.7424 90.5,16C 92.3976,19.621 94.8976,22.7877 98,25.5C 98.346,27.2182 98.846,28.8849 99.5,30.5C 98.4393,35.0755 95.9393,38.7421 92,41.5C 90.872,43.3453 90.372,45.3453 90.5,47.5C 88.8333,47.5 87.1667,47.5 85.5,47.5C 85.4207,44.7294 85.9207,42.0627 87,39.5C 95.6667,33.5 95.6667,27.5 87,21.5C 84.4014,14.2989 86.4014,8.6322 93,4.5C 93.4935,2.86586 93.6602,1.19919 93.5,-0.5 Z"/></g>
<g><path style="opacity:0.767" fill="#000000" d="M 69.5,11.5 C 71.1667,11.5 72.8333,11.5 74.5,11.5C 74.5793,14.2706 74.0793,16.9373 73,19.5C 64.3333,25.5 64.3333,31.5 73,37.5C 75.5986,44.7011 73.5986,50.3678 67,54.5C 66.5065,56.1341 66.3398,57.8008 66.5,59.5C 64.5,59.5 62.5,59.5 60.5,59.5C 60.838,57.146 61.338,54.8127 62,52.5C 64.5139,49.3223 67.0139,46.1556 69.5,43C 67.7761,39.2699 65.2761,36.1032 62,33.5C 61.654,31.7818 61.154,30.1151 60.5,28.5C 62.2782,23.5401 65.1116,19.2068 69,15.5C 69.49,14.2068 69.6567,12.8734 69.5,11.5 Z"/></g>
<g><path style="opacity:0.756" fill="#000000" d="M 118.5,11.5 C 120.167,11.5 121.833,11.5 123.5,11.5C 123.663,13.8568 123.497,16.1902 123,18.5C 120.274,21.7172 117.774,25.0505 115.5,28.5C 117.774,31.9495 120.274,35.2828 123,38.5C 123.667,41.5 123.667,44.5 123,47.5C 121.039,50.4628 118.706,53.1294 116,55.5C 115.51,56.7932 115.343,58.1266 115.5,59.5C 113.833,59.5 112.167,59.5 110.5,59.5C 110.338,57.4727 110.505,55.4727 111,53.5C 112.961,50.5372 115.294,47.8706 118,45.5C 118.167,44.6667 118.333,43.8333 118.5,43C 116.058,39.206 113.558,35.3727 111,31.5C 110.333,29.1667 110.333,26.8333 111,24.5C 112.961,21.5372 115.294,18.8706 118,16.5C 118.494,14.8659 118.66,13.1992 118.5,11.5 Z"/></g>
<g><path style="opacity:0.842" fill="#000000" d="M 90.5,127.5 C 72.5,127.5 54.5,127.5 36.5,127.5C 36.5,123.167 36.5,118.833 36.5,114.5C 37.8333,114.5 39.1667,114.5 40.5,114.5C 40.5,111.833 40.5,109.167 40.5,106.5C 55.8333,106.5 71.1667,106.5 86.5,106.5C 86.5,109.167 86.5,111.833 86.5,114.5C 87.8333,114.5 89.1667,114.5 90.5,114.5C 90.5,118.833 90.5,123.167 90.5,127.5 Z M 45.5,111.5 C 45.5,112.5 45.5,113.5 45.5,114.5C 57.5,114.5 69.5,114.5 81.5,114.5C 81.5,113.5 81.5,112.5 81.5,111.5C 69.5,111.5 57.5,111.5 45.5,111.5 Z M 41.5,119.5 C 41.5,120.5 41.5,121.5 41.5,122.5C 56.1667,122.5 70.8333,122.5 85.5,122.5C 85.5,121.5 85.5,120.5 85.5,119.5C 70.8333,119.5 56.1667,119.5 41.5,119.5 Z"/></g>
</svg>
