<?xml version="1.0" encoding="UTF-8"?>
<!DOCTYPE svg PUBLIC "-//W3C//DTD SVG 1.1//EN" "http://www.w3.org/Graphics/SVG/1.1/DTD/svg11.dtd">
<svg xmlns="http://www.w3.org/2000/svg" version="1.1" width="128px" height="128px" style="shape-rendering:geometricPrecision; text-rendering:geometricPrecision; image-rendering:optimizeQuality; fill-rule:evenodd; clip-rule:evenodd" xmlns:xlink="http://www.w3.org/1999/xlink">
<g><path style="opacity:0.837" fill="#ffffff" d="M 54.5,-0.5 C 60.5,-0.5 66.5,-0.5 72.5,-0.5C 83.3748,1.87311 90.2082,8.53978 93,19.5C 98.4617,24.7519 102.128,31.0852 104,38.5C 105.792,68.1779 105.959,97.8446 104.5,127.5C 102.833,127.5 101.167,127.5 99.5,127.5C 98.6752,99.5719 98.1752,71.5719 98,43.5C 97.1214,38.8644 95.4548,34.531 93,30.5C 92.6667,41.8333 92.3333,53.1667 92,64.5C 86.8829,81.5945 75.3829,89.0945 57.5,87C 45.3245,84.1578 37.8245,76.6578 35,64.5C 34.6667,53.1667 34.3333,41.8333 34,30.5C 31.5452,34.531 29.8786,38.8644 29,43.5C 28.8248,71.5719 28.3248,99.5719 27.5,127.5C 25.8333,127.5 24.1667,127.5 22.5,127.5C 21.0414,97.8446 21.2081,68.1779 23,38.5C 24.8716,31.0852 28.5383,24.7519 34,19.5C 36.7918,8.53978 43.6252,1.87311 54.5,-0.5 Z M 61.5,5.5 C 67.8461,5.66722 73.8461,7.16722 79.5,10C 82.1059,11.9384 83.9392,14.4384 85,17.5C 85.6667,33.1667 85.6667,48.8333 85,64.5C 84.4169,66.0016 83.5836,67.3349 82.5,68.5C 69.8333,59.1667 57.1667,59.1667 44.5,68.5C 43.4164,67.3349 42.5831,66.0016 42,64.5C 41.3333,48.8333 41.3333,33.1667 42,17.5C 43.0608,14.4384 44.8941,11.9384 47.5,10C 52.0022,7.55318 56.6688,6.05318 61.5,5.5 Z M 59.5,68.5 C 66.8053,67.9902 73.1386,70.1569 78.5,75C 68.5,82.3333 58.5,82.3333 48.5,75C 51.651,71.8004 55.3176,69.6337 59.5,68.5 Z"/></g>
</svg>
