<?xml version="1.0" encoding="UTF-8"?>
<!DOCTYPE svg PUBLIC "-//W3C//DTD SVG 1.1//EN" "http://www.w3.org/Graphics/SVG/1.1/DTD/svg11.dtd">
<svg xmlns="http://www.w3.org/2000/svg" version="1.1" width="128px" height="128px" style="shape-rendering:geometricPrecision; text-rendering:geometricPrecision; image-rendering:optimizeQuality; fill-rule:evenodd; clip-rule:evenodd" xmlns:xlink="http://www.w3.org/1999/xlink">
<g><path style="opacity:0.784" fill="#ffffff" d="M 61.5,-0.5 C 62.8333,-0.5 64.1667,-0.5 65.5,-0.5C 65.6972,4.03076 68.0305,6.69743 72.5,7.5C 73.4287,8.68884 73.762,10.0222 73.5,11.5C 71.6916,11.4914 70.0249,11.9914 68.5,13C 67.272,15.5716 65.6054,17.7383 63.5,19.5C 61.3946,17.7383 59.728,15.5716 58.5,13C 56.9751,11.9914 55.3084,11.4914 53.5,11.5C 53.238,10.0222 53.5713,8.68884 54.5,7.5C 58.9695,6.69743 61.3028,4.03076 61.5,-0.5 Z M 62.5,8.5 C 64.337,8.63945 64.6704,9.30612 63.5,10.5C 62.7025,10.0431 62.3691,9.37644 62.5,8.5 Z"/></g>
<g><path style="opacity:0.79" fill="#ffffff" d="M 19.5,17.5 C 20.8333,17.5 22.1667,17.5 23.5,17.5C 23.6867,22.0213 26.0201,24.688 30.5,25.5C 31.4287,26.6888 31.762,28.0222 31.5,29.5C 26.5,29.8333 23.8333,32.5 23.5,37.5C 22.0222,37.762 20.6888,37.4287 19.5,36.5C 18.688,32.0201 16.0213,29.6867 11.5,29.5C 11.238,28.0222 11.5713,26.6888 12.5,25.5C 16.9695,24.6974 19.3028,22.0308 19.5,17.5 Z M 20.5,26.5 C 22.337,26.6395 22.6704,27.3061 21.5,28.5C 20.7025,28.0431 20.3691,27.3764 20.5,26.5 Z"/></g>
<g><path style="opacity:0.849" fill="#ffffff" d="M 49.5,127.5 C 48.1667,127.5 46.8333,127.5 45.5,127.5C 45.3334,100.831 45.5,74.1646 46,47.5C 49.2807,42.9029 51.6141,37.9029 53,32.5C 57.1396,27.7886 62.3062,26.2886 68.5,28C 73.3834,30.2643 75.8834,34.0976 76,39.5C 78.0624,41.9007 79.7291,44.5674 81,47.5C 81.6667,58.1667 81.6667,68.8333 81,79.5C 80,80.8333 79,80.8333 78,79.5C 77.8997,69.1082 77.233,58.7749 76,48.5C 75.6667,55.5 75.3333,62.5 75,69.5C 72.6542,74.257 68.8209,76.257 63.5,75.5C 58.1791,76.257 54.3458,74.257 52,69.5C 51.6667,62.5 51.3333,55.5 51,48.5C 49.5361,74.7821 49.0361,101.115 49.5,127.5 Z M 66.5,33.5 C 68.6859,33.5106 69.5192,34.5106 69,36.5C 64.6667,40.8333 60.3333,45.1667 56,49.5C 55.3333,47.8333 55.3333,46.1667 56,44.5C 59.7039,40.9643 63.2039,37.2976 66.5,33.5 Z M 70.5,41.5 C 71.6129,42.9464 71.7796,44.6131 71,46.5C 66,51.5 61,56.5 56,61.5C 55.3333,59.8333 55.3333,58.1667 56,56.5C 61.0365,51.6313 65.8698,46.6313 70.5,41.5 Z M 70.5,53.5 C 71.6129,54.9464 71.7796,56.6131 71,58.5C 67,62.5 63,66.5 59,70.5C 58.1667,69.6667 57.3333,68.8333 56.5,68C 61.3699,63.2979 66.0366,58.4646 70.5,53.5 Z M 69.5,66.5 C 70.525,66.8966 70.6917,67.5632 70,68.5C 69.1627,70.0074 67.9961,70.5074 66.5,70C 67.7101,68.9609 68.7101,67.7942 69.5,66.5 Z"/></g>
<g><path style="opacity:0.786" fill="#ffffff" d="M 103.5,27.5 C 107.038,27.2153 108.871,28.882 109,32.5C 111.572,33.728 113.738,35.3946 115.5,37.5C 113.738,39.6054 111.572,41.272 109,42.5C 108.871,46.118 107.038,47.7847 103.5,47.5C 103.167,42.5 100.5,39.8333 95.5,39.5C 95.238,38.0222 95.5713,36.6888 96.5,35.5C 100.98,34.688 103.313,32.0213 103.5,27.5 Z M 104.5,36.5 C 106.337,36.6395 106.67,37.3061 105.5,38.5C 104.702,38.0431 104.369,37.3764 104.5,36.5 Z"/></g>
<g><path style="opacity:0.86" fill="#ffffff" d="M 39.5,127.5 C 38.1667,127.5 36.8333,127.5 35.5,127.5C 35.9352,108.453 35.4352,89.4534 34,70.5C 33.9263,77.6062 33.2597,84.6062 32,91.5C 29.1308,94.8858 25.4641,96.2191 21,95.5C 16.0609,96.5176 12.3943,94.8509 10,90.5C 9.66667,83.8333 9.33333,77.1667 9,70.5C 7.73588,84.7788 7.06922,99.1121 7,113.5C 6,114.833 5,114.833 4,113.5C 3.33333,98.8333 3.33333,84.1667 4,69.5C 5.16615,66.4968 6.83282,63.8302 9,61.5C 9.5861,50.2507 15.4194,45.7507 26.5,48C 31.4525,51.0662 33.9525,55.5662 34,61.5C 36.4416,64.0482 38.1083,67.0482 39,70.5C 39.4999,89.4971 39.6666,108.497 39.5,127.5 Z M 20.5,51.5 C 25.3656,52.0149 28.199,54.6815 29,59.5C 29.8319,68.1858 29.6652,76.8525 28.5,85.5C 27.1585,83.9951 25.4918,83.3285 23.5,83.5C 23.5,84.8333 23.5,86.1667 23.5,87.5C 25.4458,87.1928 27.1125,87.1928 28.5,87.5C 25.2532,91.6542 21.2532,92.4875 16.5,90C 15.2986,89.0975 14.4652,87.9308 14,86.5C 13.0742,76.0928 13.4075,65.7595 15,55.5C 16.4998,53.5313 18.3331,52.198 20.5,51.5 Z"/></g>
<g><path style="opacity:0.61" fill="#ffffff" d="M 19.5,53.5 C 21.6648,53.1159 23.3315,53.7826 24.5,55.5C 23.3315,57.2174 21.6648,57.8841 19.5,57.5C 19.5,56.1667 19.5,54.8333 19.5,53.5 Z"/></g>
<g><path style="opacity:0.851" fill="#ffffff" d="M 123.5,127.5 C 122.167,127.5 120.833,127.5 119.5,127.5C 119.942,110.444 119.442,93.4436 118,76.5C 117.667,83.8333 117.333,91.1667 117,98.5C 114.606,102.851 110.939,104.518 106,103.5C 100.484,104.409 96.4843,102.409 94,97.5C 93.6667,90.5 93.3333,83.5 93,76.5C 91.5733,93.4519 91.0733,110.452 91.5,127.5C 90.1667,127.5 88.8333,127.5 87.5,127.5C 87.3334,110.497 87.5001,93.4967 88,76.5C 91.4588,71.2471 94.1255,65.5804 96,59.5C 102.948,53.9276 109.615,54.261 116,60.5C 117.044,62.7148 117.71,65.0481 118,67.5C 120.167,69.8302 121.834,72.4968 123,75.5C 123.5,92.8301 123.667,110.163 123.5,127.5 Z M 107.5,60.5 C 109.544,61.0312 111.211,62.1978 112.5,64C 109.808,64.3193 108.142,63.1526 107.5,60.5 Z M 100.5,61.5 C 103.353,66.4329 107.686,69.0996 113.5,69.5C 113.762,70.9778 113.429,72.3112 112.5,73.5C 105.103,72.77 101.103,68.77 100.5,61.5 Z M 97.5,70.5 C 101.342,75.9032 106.675,78.2365 113.5,77.5C 113.5,79.1667 113.5,80.8333 113.5,82.5C 107.511,83.7054 102.344,82.0387 98,77.5C 97.5034,75.1902 97.3367,72.8568 97.5,70.5 Z M 97.5,84.5 C 102.485,87.0696 107.818,88.0696 113.5,87.5C 114.036,90.8648 112.703,92.8648 109.5,93.5C 105.518,92.9251 101.851,91.5917 98.5,89.5C 97.5481,87.9547 97.2148,86.288 97.5,84.5 Z M 98.5,96.5 C 98.56,95.9569 98.8933,95.6236 99.5,95.5C 102.974,97.0618 106.64,97.8952 110.5,98C 106.132,100.216 102.132,99.7156 98.5,96.5 Z"/></g>
<g><path style="opacity:0.681" fill="#ffffff" d="M 15.5,59.5 C 16.8333,59.5 18.1667,59.5 19.5,59.5C 19.5,60.8333 19.5,62.1667 19.5,63.5C 18.1667,63.5 16.8333,63.5 15.5,63.5C 15.5,62.1667 15.5,60.8333 15.5,59.5 Z"/></g>
<g><path style="opacity:0.606" fill="#ffffff" d="M 23.5,59.5 C 25.6648,59.1159 27.3315,59.7826 28.5,61.5C 27.3315,63.2174 25.6648,63.8841 23.5,63.5C 23.5,62.1667 23.5,60.8333 23.5,59.5 Z"/></g>
<g><path style="opacity:0.681" fill="#ffffff" d="M 15.5,67.5 C 16.8333,67.5 18.1667,67.5 19.5,67.5C 19.5,68.8333 19.5,70.1667 19.5,71.5C 18.1667,71.5 16.8333,71.5 15.5,71.5C 15.5,70.1667 15.5,68.8333 15.5,67.5 Z"/></g>
<g><path style="opacity:0.606" fill="#ffffff" d="M 23.5,67.5 C 25.6648,67.1159 27.3315,67.7826 28.5,69.5C 27.3315,71.2174 25.6648,71.8841 23.5,71.5C 23.5,70.1667 23.5,68.8333 23.5,67.5 Z"/></g>
<g><path style="opacity:0.681" fill="#ffffff" d="M 15.5,75.5 C 16.8333,75.5 18.1667,75.5 19.5,75.5C 19.5,76.8333 19.5,78.1667 19.5,79.5C 18.1667,79.5 16.8333,79.5 15.5,79.5C 15.5,78.1667 15.5,76.8333 15.5,75.5 Z"/></g>
<g><path style="opacity:0.641" fill="#ffffff" d="M 23.5,75.5 C 25.7159,75.2746 27.3826,76.1079 28.5,78C 27.0953,79.2692 25.4286,79.7692 23.5,79.5C 23.5,78.1667 23.5,76.8333 23.5,75.5 Z"/></g>
<g><path style="opacity:0.684" fill="#ffffff" d="M 15.5,83.5 C 16.8333,83.5 18.1667,83.5 19.5,83.5C 19.5,84.8333 19.5,86.1667 19.5,87.5C 18.1667,87.5 16.8333,87.5 15.5,87.5C 15.5,86.1667 15.5,84.8333 15.5,83.5 Z"/></g>
<g><path style="opacity:0.912" fill="#ffffff" d="M 81.5,127.5 C 80.1667,127.5 78.8333,127.5 77.5,127.5C 77.5,112.833 77.5,98.1667 77.5,83.5C 78.8333,83.5 80.1667,83.5 81.5,83.5C 81.5,98.1667 81.5,112.833 81.5,127.5 Z"/></g>
<g><path style="opacity:0.805" fill="#ffffff" d="M 7.5,127.5 C 6.16667,127.5 4.83333,127.5 3.5,127.5C 3.5,124.167 3.5,120.833 3.5,117.5C 4.83333,117.5 6.16667,117.5 7.5,117.5C 7.5,120.833 7.5,124.167 7.5,127.5 Z"/></g>
</svg>
