<?xml version="1.0" encoding="UTF-8"?>
<!DOCTYPE svg PUBLIC "-//W3C//DTD SVG 1.1//EN" "http://www.w3.org/Graphics/SVG/1.1/DTD/svg11.dtd">
<svg xmlns="http://www.w3.org/2000/svg" version="1.1" width="128px" height="128px" style="shape-rendering:geometricPrecision; text-rendering:geometricPrecision; image-rendering:optimizeQuality; fill-rule:evenodd; clip-rule:evenodd" xmlns:xlink="http://www.w3.org/1999/xlink">
<g><path style="opacity:0.793" fill="#000000" d="M 7.5,-0.5 C 44.8333,-0.5 82.1667,-0.5 119.5,-0.5C 122.529,1.37197 124.695,4.03864 126,7.5C 126.667,23.8333 126.667,40.1667 126,56.5C 124.333,60.8333 121.333,63.8333 117,65.5C 116.819,74.4113 116.319,83.2447 115.5,92C 114.216,92.6838 113.049,92.5171 112,91.5C 111.5,82.8397 111.334,74.1731 111.5,65.5C 108.03,64.8748 105.196,65.8748 103,68.5C 92.3928,85.254 86.8928,103.587 86.5,123.5C 94.8333,123.5 103.167,123.5 111.5,123.5C 111.334,114.827 111.5,106.16 112,97.5C 113.356,96.6198 114.856,96.2865 116.5,96.5C 116.5,106.833 116.5,117.167 116.5,127.5C 81.1667,127.5 45.8333,127.5 10.5,127.5C 10.6666,106.831 10.5,86.164 10,65.5C 5.66667,63.8333 2.66667,60.8333 1,56.5C 0.500344,49.1742 0.333677,41.8409 0.5,34.5C 2.14387,34.2865 3.64387,34.6198 5,35.5C 5.33333,42.5 5.66667,49.5 6,56.5C 8.9547,60.2765 12.788,61.4432 17.5,60C 13.4067,55.9823 10.7401,51.149 9.5,45.5C 10.0501,42.2272 11.7167,39.7272 14.5,38C 24.5139,37.4098 34.5139,37.5764 44.5,38.5C 46.4491,30.6142 48.9491,22.9476 52,15.5C 59.6667,7.5 67.3333,7.5 75,15.5C 76.1,20.3995 77.4333,25.0662 79,29.5C 76.4598,30.8765 74.4598,30.2098 73,27.5C 66.6667,32.8333 60.3333,32.8333 54,27.5C 46.3329,36.553 48.1663,42.3863 59.5,45C 65.9779,45.9509 71.8112,44.4509 77,40.5C 77.4966,38.1902 77.6633,35.8568 77.5,33.5C 81.1507,33.1617 82.8174,34.8284 82.5,38.5C 92.4861,37.5764 102.486,37.4098 112.5,38C 118.623,42.8234 119.123,48.3234 114,54.5C 107.464,60.1612 108.631,61.9946 117.5,60C 118.667,58.8333 119.833,57.6667 121,56.5C 121.667,40.5 121.667,24.5 121,8.5C 119.891,6.18532 118.057,4.68532 115.5,4C 80.8333,3.33333 46.1667,3.33333 11.5,4C 8.94273,4.68532 7.1094,6.18532 6,8.5C 5.66667,15.5 5.33333,22.5 5,29.5C 3.66667,30.8333 2.33333,30.8333 1,29.5C 0.333333,22.1667 0.333333,14.8333 1,7.5C 2.30459,4.03864 4.47125,1.37197 7.5,-0.5 Z M 60.5,14.5 C 64.8027,13.7962 68.3027,15.1295 71,18.5C 71.6816,22.1802 70.1816,24.6802 66.5,26C 61.1692,27.3348 57.5026,25.5014 55.5,20.5C 56.4649,17.8724 58.1315,15.8724 60.5,14.5 Z M 18.5,41.5 C 27.1333,42.3772 35.8,42.7105 44.5,42.5C 44.2865,44.1439 44.6198,45.6439 45.5,47C 39.4853,47.5348 33.4853,48.2015 27.5,49C 26.4829,50.0495 26.3162,51.2161 27,52.5C 32.9192,60.4212 40.0858,66.9212 48.5,72C 55.8178,74.8402 59.8178,72.3402 60.5,64.5C 62.5,64.5 64.5,64.5 66.5,64.5C 67.1822,72.3402 71.1822,74.8402 78.5,72C 86.9142,66.9212 94.0808,60.4212 100,52.5C 100.684,51.2161 100.517,50.0495 99.5,49C 93.5147,48.2015 87.5147,47.5348 81.5,47C 82.3802,45.6439 82.7135,44.1439 82.5,42.5C 90.5362,42.771 98.5362,42.4377 106.5,41.5C 109.451,41.8016 111.451,43.3016 112.5,46C 104.56,56.6195 97.3934,67.7862 91,79.5C 85.5987,93.34 82.432,107.673 81.5,122.5C 69.5,123.833 57.5,123.833 45.5,122.5C 44.4085,114.858 43.4085,107.192 42.5,99.5C 40.0516,99.0101 38.385,99.8434 37.5,102C 38.8284,109.123 39.8284,116.29 40.5,123.5C 32.1667,123.5 23.8333,123.5 15.5,123.5C 15.5,104.167 15.5,84.8333 15.5,65.5C 18.3646,65.0548 20.8646,65.7215 23,67.5C 29.1068,75.6183 33.4401,84.6183 36,94.5C 37.3561,95.3802 38.8561,95.7135 40.5,95.5C 39.6437,88.4305 37.477,81.7638 34,75.5C 28.0579,65.893 21.7246,56.5597 15,47.5C 14.6506,44.6695 15.8173,42.6695 18.5,41.5 Z M 50.5,48.5 C 50.56,47.9569 50.8933,47.6236 51.5,47.5C 55.3648,49.0067 59.3648,50.0067 63.5,50.5C 67.9431,49.7106 72.2764,48.8773 76.5,48C 68.013,63.1432 59.3463,63.3099 50.5,48.5 Z M 34.5,52.5 C 38.8461,52.3343 43.1794,52.501 47.5,53C 49.1667,55.3333 50.8333,57.6667 52.5,60C 44.0827,62.6854 38.0827,60.1854 34.5,52.5 Z M 79.5,52.5 C 83.8839,52.1744 88.2172,52.5078 92.5,53.5C 88.3015,60.2139 82.3015,62.3805 74.5,60C 76.3887,57.6182 78.0553,55.1182 79.5,52.5 Z M 47.5,66.5 C 50.0241,65.1997 52.6908,65.1997 55.5,66.5C 55.1131,67.7199 54.2798,68.3865 53,68.5C 51.1997,67.6805 49.3664,67.0138 47.5,66.5 Z M 71.5,65.5 C 74.1873,65.3359 76.854,65.5026 79.5,66C 77.7262,66.9704 75.8928,67.8037 74,68.5C 72.2509,68.2517 71.4176,67.2517 71.5,65.5 Z M 56.5,79.5 C 59.6646,78.9635 62.3312,79.7969 64.5,82C 60.934,85.4353 57.6007,85.2686 54.5,81.5C 55.2427,80.8182 55.9094,80.1515 56.5,79.5 Z M 67.5,93.5 C 71.5507,93.5058 74.884,95.0058 77.5,98C 71.8333,104 66.1667,104 60.5,98C 62.3235,95.4953 64.6569,93.9953 67.5,93.5 Z M 59.5,113.5 C 62.0728,113.148 64.4062,113.648 66.5,115C 63.9053,116.893 61.2386,116.893 58.5,115C 59.056,114.617 59.3893,114.117 59.5,113.5 Z"/></g>
<g><path style="opacity:0.754" fill="#000000" d="M 54.5,74.5 C 59.7654,73.5706 64.2654,74.9039 68,78.5C 69.6001,85.4153 66.7667,89.082 59.5,89.5C 51.6048,88.8041 48.7715,84.8041 51,77.5C 52.1451,76.3636 53.3117,75.3636 54.5,74.5 Z M 56.5,79.5 C 55.9094,80.1515 55.2427,80.8182 54.5,81.5C 57.6007,85.2686 60.934,85.4353 64.5,82C 62.3312,79.7969 59.6646,78.9635 56.5,79.5 Z"/></g>
<g><path style="opacity:0.786" fill="#000000" d="M 63.5,89.5 C 68.2675,89.1908 72.9342,89.6908 77.5,91C 83.9333,96.7577 83.2666,101.758 75.5,106C 69.5743,107.11 63.9077,106.444 58.5,104C 54.4306,97.3764 56.0972,92.543 63.5,89.5 Z M 67.5,93.5 C 64.6569,93.9953 62.3235,95.4953 60.5,98C 66.1667,104 71.8333,104 77.5,98C 74.884,95.0058 71.5507,93.5058 67.5,93.5 Z"/></g>
<g><path style="opacity:0.755" fill="#000000" d="M 58.5,108.5 C 64.8268,106.996 69.1601,109.163 71.5,115C 70.3023,119.578 67.3023,121.744 62.5,121.5C 55.5993,121.435 53.0993,118.102 55,111.5C 56.1451,110.364 57.3117,109.364 58.5,108.5 Z M 59.5,113.5 C 59.3893,114.117 59.056,114.617 58.5,115C 61.2386,116.893 63.9053,116.893 66.5,115C 64.4062,113.648 62.0728,113.148 59.5,113.5 Z"/></g>
</svg>
