<?xml version="1.0" encoding="UTF-8"?>
<!DOCTYPE svg PUBLIC "-//W3C//DTD SVG 1.1//EN" "http://www.w3.org/Graphics/SVG/1.1/DTD/svg11.dtd">
<svg xmlns="http://www.w3.org/2000/svg" version="1.1" width="128px" height="128px" style="shape-rendering:geometricPrecision; text-rendering:geometricPrecision; image-rendering:optimizeQuality; fill-rule:evenodd; clip-rule:evenodd" xmlns:xlink="http://www.w3.org/1999/xlink">
<g><path style="opacity:0.723" fill="#ffffff" d="M 90.5,3.5 C 91.8333,3.5 93.1667,3.5 94.5,3.5C 95.1498,12.8165 100.15,17.8165 109.5,18.5C 109.5,19.8333 109.5,21.1667 109.5,22.5C 100.195,23.1382 95.1951,28.1382 94.5,37.5C 93.1667,37.5 91.8333,37.5 90.5,37.5C 89.8049,28.1382 84.8049,23.1382 75.5,22.5C 75.5,21.1667 75.5,19.8333 75.5,18.5C 84.8502,17.8165 89.8502,12.8165 90.5,3.5 Z M 91.5,14.5 C 94.4073,15.7341 96.7407,17.7341 98.5,20.5C 96.1667,22.1667 94.1667,24.1667 92.5,26.5C 90.8333,24.1667 88.8333,22.1667 86.5,20.5C 88.1897,18.4807 89.8564,16.4807 91.5,14.5 Z"/></g>
<g><path style="opacity:0.715" fill="#ffffff" d="M 18.5,16.5 C 19.8221,16.33 20.9887,16.6634 22,17.5C 22.8333,26.3333 27.6667,31.1667 36.5,32C 37.9255,33.7141 37.5922,35.0475 35.5,36C 27.2471,37.2552 22.7471,42.0885 22,50.5C 20.9887,51.3366 19.8221,51.67 18.5,51.5C 18.2424,47.5598 17.0757,43.8931 15,40.5C 10.8702,37.9463 6.70357,35.6129 2.5,33.5C 12.3038,32.0298 17.6371,26.3632 18.5,16.5 Z M 19.5,27.5 C 22.0026,29.8327 24.6693,31.9993 27.5,34C 24.7047,35.7932 22.2047,37.9598 20,40.5C 18.5,37.6667 16.3333,35.5 13.5,34C 16.3859,32.6155 18.3859,30.4488 19.5,27.5 Z"/></g>
<g><path style="opacity:0.733" fill="#ffffff" d="M 55.5,27.5 C 68.6406,25.8163 76.1406,31.483 78,44.5C 80.4866,46.8089 82.4866,49.4756 84,52.5C 85.6162,67.0982 85.9495,81.7649 85,96.5C 84,97.8333 83,97.8333 82,96.5C 81.6667,83.5 81.3333,70.5 81,57.5C 80.2754,55.0506 79.2754,52.7173 78,50.5C 77.6667,57.1667 77.3333,63.8333 77,70.5C 72.1462,82.5678 63.6462,86.0678 51.5,81C 47.334,77.8349 44.834,73.6682 44,68.5C 43.6667,62.8333 43.3333,57.1667 43,51.5C 41.6189,53.6349 40.6189,55.9682 40,58.5C 39.3333,78.1667 39.3333,97.8333 40,117.5C 40.5,118 41,118.5 41.5,119C 54.1667,119.667 66.8333,119.667 79.5,119C 80,118.5 80.5,118 81,117.5C 81.3333,114.167 81.6667,110.833 82,107.5C 83,106.167 84,106.167 85,107.5C 85.6667,111.5 85.6667,115.5 85,119.5C 84.5,121.333 83.3333,122.5 81.5,123C 67.5,123.667 53.5,123.667 39.5,123C 37.9512,121.786 36.7845,120.286 36,118.5C 35.3333,98.1667 35.3333,77.8333 36,57.5C 37.1936,52.1117 39.6936,47.445 43.5,43.5C 44.6382,35.8394 48.6382,30.506 55.5,27.5 Z M 56.5,31.5 C 64.807,30.3964 70.307,33.7298 73,41.5C 73.6667,50.8333 73.6667,60.1667 73,69.5C 67.0706,81.0197 59.4039,82.353 50,73.5C 49.0266,71.6079 48.3599,69.6079 48,67.5C 47.3333,59.5 47.3333,51.5 48,43.5C 48.6589,37.8131 51.4922,33.8131 56.5,31.5 Z"/></g>
<g><path style="opacity:0.717" fill="#ffffff" d="M 105.5,56.5 C 106.496,56.4142 107.329,56.7476 108,57.5C 108.903,61.8055 110.737,65.6388 113.5,69C 117.488,70.3935 121.154,72.2268 124.5,74.5C 120.21,75.6896 116.21,77.6896 112.5,80.5C 109.98,83.7267 108.646,87.3934 108.5,91.5C 107.178,91.67 106.011,91.3366 105,90.5C 104.167,81.6667 99.3333,76.8333 90.5,76C 89.6634,74.9887 89.33,73.8221 89.5,72.5C 99.1742,71.4924 104.508,66.1591 105.5,56.5 Z M 106.5,67.5 C 108.309,70.1393 110.642,72.3059 113.5,74C 110.763,75.6141 108.597,77.7808 107,80.5C 104.795,77.9598 102.295,75.7932 99.5,74C 102.331,72.3343 104.664,70.1676 106.5,67.5 Z"/></g>
</svg>
