<?xml version="1.0" encoding="UTF-8"?>
<!DOCTYPE svg PUBLIC "-//W3C//DTD SVG 1.1//EN" "http://www.w3.org/Graphics/SVG/1.1/DTD/svg11.dtd">
<svg xmlns="http://www.w3.org/2000/svg" version="1.1" width="128px" height="128px" style="shape-rendering:geometricPrecision; text-rendering:geometricPrecision; image-rendering:optimizeQuality; fill-rule:evenodd; clip-rule:evenodd" xmlns:xlink="http://www.w3.org/1999/xlink">
<g><path style="opacity:0.77" fill="#ffffff" d="M 41.5,-0.5 C 44.8333,-0.5 48.1667,-0.5 51.5,-0.5C 51.8656,0.694594 52.699,1.36126 54,1.5C 58.9901,-0.48568 63.1567,0.51432 66.5,4.5C 72.1694,6.04486 77.5027,8.21152 82.5,11C 84.607,12.2635 85.607,14.0968 85.5,16.5C 92.0885,16.6566 94.5885,19.99 93,26.5C 92.1061,29.133 90.6061,31.2996 88.5,33C 89.1608,35.464 89.6608,37.964 90,40.5C 97.3333,47.1667 104.667,53.8333 112,60.5C 113.363,64.7612 113.696,69.0946 113,73.5C 111.644,74.3802 110.144,74.7135 108.5,74.5C 108.665,70.8183 108.499,67.1516 108,63.5C 102,58.1667 96,52.8333 90,47.5C 88.6346,48.5929 88.3013,49.9262 89,51.5C 92.5212,54.5647 95.0212,58.2314 96.5,62.5C 95.8406,68.6246 94.674,74.6246 93,80.5C 89.9269,81.6168 86.7603,81.7835 83.5,81C 81.7093,78.586 80.0426,76.086 78.5,73.5C 76.4529,72.0961 74.7862,72.4294 73.5,74.5C 76.0766,80.6517 78.9099,86.6517 82,92.5C 84.8922,95.0574 88.0589,97.224 91.5,99C 95.7296,102.84 98.5629,107.34 100,112.5C 99.4387,113.022 98.772,113.355 98,113.5C 94.506,110.385 91.3393,106.885 88.5,103C 84.5598,101.114 81.0598,98.6135 78,95.5C 72.7051,87.9334 70.0384,79.6001 70,70.5C 73.3731,67.114 77.2064,66.614 81.5,69C 83.2907,71.414 84.9574,73.914 86.5,76.5C 87.325,77.3857 88.325,77.719 89.5,77.5C 90.3358,72.166 90.8358,66.8326 91,61.5C 89.6152,60.4495 88.6152,59.1161 88,57.5C 86.6038,60.298 85.7705,63.298 85.5,66.5C 84.1667,66.5 82.8333,66.5 81.5,66.5C 82.1189,57.9026 83.4522,49.4026 85.5,41C 84.655,34.3019 81.3217,29.3019 75.5,26C 70.5721,24.6784 65.5721,23.6784 60.5,23C 53.1377,20.1286 49.971,14.6286 51,6.5C 46.6158,2.43472 43.4491,3.26805 41.5,9C 42.9838,13.1774 43.6505,17.5108 43.5,22C 43.0443,29.8361 42.5443,37.6695 42,45.5C 41,46.8333 40,46.8333 39,45.5C 38.587,42.7679 37.9203,40.1013 37,37.5C 36.0093,38.4296 35.5093,39.5962 35.5,41C 36.3308,45.1508 36.9974,49.3175 37.5,53.5C 38.552,53.6495 39.552,53.4828 40.5,53C 42.4392,48.0586 45.9392,44.892 51,43.5C 55.0502,44.7168 57.5502,47.3834 58.5,51.5C 57,55.1667 55.5,58.8333 54,62.5C 51.7855,65.3081 50.2855,64.9748 49.5,61.5C 50.2767,57.9463 51.61,54.6129 53.5,51.5C 52.8333,50.1667 51.8333,49.1667 50.5,48.5C 47.8125,51.3617 45.4791,54.5283 43.5,58C 40.438,58.7415 37.438,58.5748 34.5,57.5C 32.0368,50.7208 30.8701,43.7208 31,36.5C 34.1214,33.2199 36.6214,29.5532 38.5,25.5C 38.3333,24.8333 38.1667,24.1667 38,23.5C 32,28.8333 26,34.1667 20,39.5C 18.7221,48.3991 18.0555,57.3991 18,66.5C 15.6667,71.1667 13.3333,75.8333 11,80.5C 8.83333,82 7.33333,81.5 6.5,79C 8.53041,74.439 10.6971,69.939 13,65.5C 13.118,56.4399 13.7846,47.4399 15,38.5C 17.4626,35.0354 20.2959,31.8688 23.5,29C 28.7194,24.8948 33.7194,20.5615 38.5,16C 35.19,9.65724 36.19,4.15724 41.5,-0.5 Z M 56.5,5.5 C 62.501,5.45654 64.6677,8.45654 63,14.5C 62,15.5 61,16.5 60,17.5C 56.7838,14.2258 55.6171,10.2258 56.5,5.5 Z M 68.5,10.5 C 72.5652,11.5215 73.3986,13.8548 71,17.5C 69.5341,19.3249 67.7008,19.8249 65.5,19C 67.5848,16.5806 68.5848,13.7472 68.5,10.5 Z M 77.5,14.5 C 82.2238,16.201 82.7238,18.8677 79,22.5C 77.7949,21.9288 76.6283,21.2621 75.5,20.5C 76.1717,18.4705 76.8384,16.4705 77.5,14.5 Z M 85.5,21.5 C 86.5,21.5 87.5,21.5 88.5,21.5C 88.9783,24.2776 87.9783,26.2776 85.5,27.5C 84.5,27.1667 83.8333,26.5 83.5,25.5C 84.6302,24.3777 85.2969,23.0443 85.5,21.5 Z"/></g>
<g><path style="opacity:0.751" fill="#ffffff" d="M 47.5,34.5 C 61.9883,34.1555 68.1549,41.1555 66,55.5C 64.6439,56.3802 63.1439,56.7135 61.5,56.5C 63.9857,44.3159 58.9857,38.6492 46.5,39.5C 46.366,37.7085 46.6993,36.0418 47.5,34.5 Z"/></g>
<g><path style="opacity:0.764" fill="#ffffff" d="M 70.5,57.5 C 73.8333,57.5 77.1667,57.5 80.5,57.5C 80.5,58.8333 80.5,60.1667 80.5,61.5C 77.7508,61.2739 75.0841,61.6072 72.5,62.5C 70.7826,61.3315 70.1159,59.6648 70.5,57.5 Z"/></g>
<g><path style="opacity:0.743" fill="#ffffff" d="M 64.5,60.5 C 66.6348,60.147 67.9681,60.9803 68.5,63C 66.8652,65.7699 65.3652,68.6033 64,71.5C 63.6386,74.4371 64.1386,77.2704 65.5,80C 64.6667,82.5 63.1667,83 61,81.5C 57.8228,73.895 58.9895,66.895 64.5,60.5 Z"/></g>
<g><path style="opacity:0.709" fill="#ffffff" d="M 46.5,66.5 C 48.6348,66.147 49.9681,66.9803 50.5,69C 48.343,73.9247 44.6763,77.258 39.5,79C 36.5,82.6667 33.5,86.3333 30.5,90C 27.3333,90.8333 26.1667,89.6667 27,86.5C 28.6667,84.1667 30.3333,81.8333 32,79.5C 37.3365,75.7451 42.1698,71.4117 46.5,66.5 Z"/></g>
<g><path style="opacity:0.732" fill="#ffffff" d="M 46.5,77.5 C 48.1439,77.2865 49.6439,77.6198 51,78.5C 51.4996,85.1583 51.6663,91.825 51.5,98.5C 49.8561,98.7135 48.3561,98.3802 47,97.5C 46.5004,90.8417 46.3337,84.175 46.5,77.5 Z"/></g>
<g><path style="opacity:0.72" fill="#ffffff" d="M 109.5,77.5 C 111.017,77.5106 112.184,78.1772 113,79.5C 113.333,82.5 113.667,85.5 114,88.5C 116.303,92.939 118.47,97.439 120.5,102C 119.667,104.5 118.167,105 116,103.5C 113.921,99.0074 111.588,94.674 109,90.5C 108.232,86.0804 108.398,81.7471 109.5,77.5 Z"/></g>
<g><path style="opacity:0.768" fill="#ffffff" d="M 70.5,127.5 C 66.5,127.5 62.5,127.5 58.5,127.5C 48.0286,122.476 44.0286,114.142 46.5,102.5C 47.8333,102.5 49.1667,102.5 50.5,102.5C 48.9738,113.812 53.6405,120.812 64.5,123.5C 74.8294,121.56 79.9961,115.226 80,104.5C 81.3561,103.62 82.8561,103.286 84.5,103.5C 84.908,114.711 80.2414,122.711 70.5,127.5 Z"/></g>
</svg>
