<?xml version="1.0" encoding="UTF-8"?>
<!DOCTYPE svg PUBLIC "-//W3C//DTD SVG 1.1//EN" "http://www.w3.org/Graphics/SVG/1.1/DTD/svg11.dtd">
<svg xmlns="http://www.w3.org/2000/svg" version="1.1" width="128px" height="128px" style="shape-rendering:geometricPrecision; text-rendering:geometricPrecision; image-rendering:optimizeQuality; fill-rule:evenodd; clip-rule:evenodd" xmlns:xlink="http://www.w3.org/1999/xlink">
<g><path style="opacity:0.568" fill="#ffffff" d="M 51.5,19.5 C 53.1667,19.5 54.8333,19.5 56.5,19.5C 56.5,21.1667 56.5,22.8333 56.5,24.5C 54.8333,24.5 53.1667,24.5 51.5,24.5C 51.5,22.8333 51.5,21.1667 51.5,19.5 Z"/></g>
<g><path style="opacity:0.747" fill="#ffffff" d="M 62.5,27.5 C 64.1667,27.5 65.8333,27.5 67.5,27.5C 67.5,28.5 67.5,29.5 67.5,30.5C 68.8333,30.5 70.1667,30.5 71.5,30.5C 71.5,32.1667 71.5,33.8333 71.5,35.5C 70.1667,35.5 68.8333,35.5 67.5,35.5C 67.5,36.8333 67.5,38.1667 67.5,39.5C 65.8333,39.5 64.1667,39.5 62.5,39.5C 62.5,38.1667 62.5,36.8333 62.5,35.5C 61.5,35.5 60.5,35.5 59.5,35.5C 59.5,33.8333 59.5,32.1667 59.5,30.5C 60.5,30.5 61.5,30.5 62.5,30.5C 62.5,29.5 62.5,28.5 62.5,27.5 Z"/></g>
<g><path style="opacity:0.77" fill="#ffffff" d="M 127.5,67.5 C 127.5,68.5 127.5,69.5 127.5,70.5C 122.988,74.7237 117.655,76.2237 111.5,75C 99.3955,67.8541 86.3955,63.5207 72.5,62C 80.4951,73.0387 80.4951,84.0387 72.5,95C 80.7318,93.9829 88.7318,91.8162 96.5,88.5C 98.9166,90.4935 98.9166,92.3268 96.5,94C 98.9305,96.3046 99.9305,99.1379 99.5,102.5C 97.8333,102.5 96.1667,102.5 94.5,102.5C 92.9928,96.3526 89.3261,94.8526 83.5,98C 83.1667,98.3333 82.8333,98.6667 82.5,99C 84.0163,100.897 84.683,103.064 84.5,105.5C 82.712,105.785 81.0453,105.452 79.5,104.5C 78.0511,101.222 75.5511,99.8883 72,100.5C 69.4088,100.565 66.9088,101.065 64.5,102C 65.4061,103.699 65.7394,105.533 65.5,107.5C 62.1405,108.21 60.3071,106.876 60,103.5C 59.2496,102.874 58.4162,102.374 57.5,102C 47.8891,101.843 38.5558,100.176 29.5,97C 19.5874,91.5686 9.58741,86.4019 -0.5,81.5C -0.5,79.8333 -0.5,78.1667 -0.5,76.5C 17.9811,61.2837 39.3144,54.117 63.5,55C 72.3883,52.0672 77.0549,45.9005 77.5,36.5C 79.1667,36.5 80.8333,36.5 82.5,36.5C 82.3402,44.3191 79.3402,50.8191 73.5,56C 85.5148,56.8335 91.8482,51.0001 92.5,38.5C 94.1667,38.5 95.8333,38.5 97.5,38.5C 97.877,47.5576 94.2104,54.3909 86.5,59C 94.1898,61.5872 100.356,59.4205 105,52.5C 106.759,49.3924 107.592,46.059 107.5,42.5C 109.167,42.5 110.833,42.5 112.5,42.5C 112.38,51.7413 108.38,58.7413 100.5,63.5C 107.529,65.7665 113.363,63.7665 118,57.5C 119.94,54.0724 121.106,50.4058 121.5,46.5C 122.833,46.5 124.167,46.5 125.5,46.5C 125.795,57.0746 121.128,64.5746 111.5,69C 116.38,71.191 120.713,70.3577 124.5,66.5C 125.417,67.1272 126.417,67.4606 127.5,67.5 Z M 50.5,60.5 C 63.9238,59.2561 71.9238,65.2561 74.5,78.5C 70.3023,95.4325 60.3023,100.266 44.5,93C 35.1667,83.3333 35.1667,73.6667 44.5,64C 46.7274,63.059 48.7274,61.8923 50.5,60.5 Z M 35.5,62.5 C 36.552,62.3505 37.552,62.5172 38.5,63C 30.592,73.3461 30.592,83.6794 38.5,94C 35.8213,93.7816 33.1546,93.115 30.5,92C 22.1122,87.1394 13.4455,82.8061 4.5,79C 13.7631,71.37 24.0964,65.87 35.5,62.5 Z M 48.5,83.5 C 50.9732,83.9473 51.1399,84.9473 49,86.5C 48.5172,85.552 48.3505,84.552 48.5,83.5 Z"/></g>
<g><path style="opacity:0.756" fill="#ffffff" d="M 51.5,47.5 C 54.5,47.5 57.5,47.5 60.5,47.5C 60.5,49.1667 60.5,50.8333 60.5,52.5C 43.6074,51.576 27.9407,55.4093 13.5,64C 8.34272,63.8735 7.67605,62.2068 11.5,59C 24.0732,52.0281 37.4065,48.1948 51.5,47.5 Z"/></g>
<g><path style="opacity:0.76" fill="#ffffff" d="M 53.5,66.5 C 61.879,66.3351 66.5456,70.3351 67.5,78.5C 65.8333,78.5 64.1667,78.5 62.5,78.5C 61.1636,71.9958 57.4969,70.1625 51.5,73C 50.5,74.6667 49.5,76.3333 48.5,78C 52.9392,78.6058 55.6059,81.1058 56.5,85.5C 58.8091,84.3492 60.9758,83.0159 63,81.5C 64.395,81.7804 65.5617,82.4471 66.5,83.5C 63.8214,88.8605 59.6547,90.8605 54,89.5C 50.4424,92.0737 47.109,91.7404 44,88.5C 43.6683,83.8098 44.0017,79.1431 45,74.5C 46.4447,70.218 49.2781,67.5513 53.5,66.5 Z M 48.5,83.5 C 48.3505,84.552 48.5172,85.552 49,86.5C 51.1399,84.9473 50.9732,83.9473 48.5,83.5 Z"/></g>
<g><path style="opacity:0.693" fill="#ffffff" d="M 109.5,80.5 C 112.68,80.1762 113.847,81.5096 113,84.5C 109.672,87.3327 106.005,89.666 102,91.5C 100.916,90.3349 100.083,89.0016 99.5,87.5C 103.25,85.6367 106.583,83.3034 109.5,80.5 Z"/></g>
</svg>
