<?xml version="1.0" encoding="UTF-8"?>
<!DOCTYPE svg PUBLIC "-//W3C//DTD SVG 1.1//EN" "http://www.w3.org/Graphics/SVG/1.1/DTD/svg11.dtd">
<svg xmlns="http://www.w3.org/2000/svg" version="1.1" width="128px" height="128px" style="shape-rendering:geometricPrecision; text-rendering:geometricPrecision; image-rendering:optimizeQuality; fill-rule:evenodd; clip-rule:evenodd" xmlns:xlink="http://www.w3.org/1999/xlink">
<g><path style="opacity:0.771" fill="#ffffff" d="M 45.5,0.5 C 46.4959,0.414228 47.3292,0.747561 48,1.5C 48.9439,4.34707 48.4439,6.84707 46.5,9C 49.56,14.6876 48.8934,19.8542 44.5,24.5C 42.0318,21.6911 42.0318,18.6911 44.5,15.5C 41.7639,10.3622 42.0972,5.36219 45.5,0.5 Z"/></g>
<g><path style="opacity:0.778" fill="#ffffff" d="M 63.5,0.5 C 64.4959,0.414228 65.3292,0.747561 66,1.5C 66.7249,4.37658 66.2249,7.04325 64.5,9.5C 67.1706,14.1859 67.0039,18.8525 64,23.5C 62.9887,24.3366 61.8221,24.67 60.5,24.5C 60.2035,21.2761 60.8702,18.2761 62.5,15.5C 59.7639,10.3622 60.0972,5.36219 63.5,0.5 Z"/></g>
<g><path style="opacity:0.771" fill="#ffffff" d="M 81.5,0.5 C 82.4959,0.414228 83.3292,0.747561 84,1.5C 84.7249,4.37658 84.2249,7.04325 82.5,9.5C 85.1706,14.1859 85.0039,18.8525 82,23.5C 80.9887,24.3366 79.8221,24.67 78.5,24.5C 78.154,21.3979 78.8207,18.5645 80.5,16C 77.7279,10.6639 78.0612,5.49726 81.5,0.5 Z"/></g>
<g><path style="opacity:0.782" fill="#ffffff" d="M 127.5,88.5 C 127.5,92.8333 127.5,97.1667 127.5,101.5C 125.845,105.346 123.512,108.846 120.5,112C 123.404,112.133 125.738,113.3 127.5,115.5C 127.5,118.167 127.5,120.833 127.5,123.5C 126.317,124.504 124.984,125.338 123.5,126C 89.8333,126.667 56.1667,126.667 22.5,126C 10.9533,123.945 3.28664,117.445 -0.5,106.5C -0.5,101.5 -0.5,96.5 -0.5,91.5C 4.21012,79.9546 12.8768,73.4546 25.5,72C 13.3275,59.024 13.6608,46.3574 26.5,34C 29.4917,31.8899 32.825,30.5566 36.5,30C 54.5,29.3333 72.5,29.3333 90.5,30C 103.168,33.8221 108.335,42.3221 106,55.5C 105.3,59.0662 103.467,61.8995 100.5,64C 105.051,65.0487 107.051,67.882 106.5,72.5C 117.034,73.385 124.034,78.7184 127.5,88.5 Z M 35.5,34.5 C 46.2659,33.9364 52.5993,38.9364 54.5,49.5C 52.8744,60.9591 46.5411,65.4591 35.5,63C 29.3392,58.5258 28.1725,53.0258 32,46.5C 36.1333,41.8678 40.4666,41.5345 45,45.5C 47.2508,49.6664 46.4174,53.1664 42.5,56C 39.8882,56.7414 38.2215,55.7414 37.5,53C 39.019,51.6487 40.3523,50.1487 41.5,48.5C 38.7852,45.7896 36.2852,46.1229 34,49.5C 32.4785,58.9809 36.3118,62.4809 45.5,60C 53.0697,53.649 53.403,46.9824 46.5,40C 39.4817,36.4611 33.315,37.6278 28,43.5C 22.5782,53.7363 24.7448,61.903 34.5,68C 40.0716,69.3507 45.7383,69.8507 51.5,69.5C 51.5,70.5 51.5,71.5 51.5,72.5C 43.7944,73.3354 36.4611,72.1688 29.5,69C 17.4273,55.0025 19.4273,43.5025 35.5,34.5 Z M 52.5,35.5 C 59.4445,33.053 64.2778,35.3863 67,42.5C 69.8497,51.2839 67.683,58.4506 60.5,64C 58.1667,64.6667 55.8333,64.6667 53.5,64C 61.7956,54.0309 61.4622,44.5309 52.5,35.5 Z M 68.5,34.5 C 71.8499,34.335 75.1832,34.5017 78.5,35C 80.7344,38.6564 83.0678,42.1564 85.5,45.5C 86.9458,44.8291 87.6125,43.6624 87.5,42C 87.0492,39.4316 86.0492,37.0983 84.5,35C 94.7334,34.3868 100.733,39.2202 102.5,49.5C 100.718,59.7984 94.7176,64.6318 84.5,64C 87.5601,59.6517 88.8934,54.8184 88.5,49.5C 86.8561,49.2865 85.3561,49.6198 84,50.5C 83.5287,55.5862 81.6954,60.0862 78.5,64C 75.1177,64.8236 71.7844,64.657 68.5,63.5C 74.8685,53.872 74.8685,44.2053 68.5,34.5 Z M 56.5,69.5 C 71.5,69.5 86.5,69.5 101.5,69.5C 101.5,70.5 101.5,71.5 101.5,72.5C 93.1667,72.5 84.8333,72.5 76.5,72.5C 76.5,74.1667 76.5,75.8333 76.5,77.5C 79.8499,77.335 83.1832,77.5017 86.5,78C 95.7568,89.3025 95.7568,100.636 86.5,112C 78.5,112.667 70.5,112.667 62.5,112C 69.0506,102.875 70.2173,93.0412 66,82.5C 64.9542,80.9095 63.7875,79.4095 62.5,78C 65.4816,77.502 68.4816,77.3354 71.5,77.5C 71.5,75.8333 71.5,74.1667 71.5,72.5C 66.5,72.5 61.5,72.5 56.5,72.5C 56.5,71.5 56.5,70.5 56.5,69.5 Z M 19.5,77.5 C 30.2114,76.1011 37.3781,80.4344 41,90.5C 42.757,102.414 37.757,109.747 26,112.5C 22.1986,111.159 18.3653,110.159 14.5,109.5C 14.0502,113.224 15.7168,115.391 19.5,116C 25.1667,116.333 30.8333,116.667 36.5,117C 38.5922,117.953 38.9255,119.286 37.5,121C 22.7869,124.386 11.9536,119.553 5,106.5C 2.04398,92.952 6.87731,83.2853 19.5,77.5 Z M 38.5,78.5 C 56.6965,74.183 64.8632,81.5164 63,100.5C 61.6572,104.51 59.4905,108.01 56.5,111C 50.6123,112.576 44.6123,112.909 38.5,112C 46.3546,105.08 48.5213,96.5799 45,86.5C 43.6716,83.0189 41.505,80.3522 38.5,78.5 Z M 93.5,77.5 C 98.8437,77.334 104.177,77.5006 109.5,78C 123.355,83.9176 126.522,93.4176 119,106.5C 114.686,110.607 109.52,112.774 103.5,113C 102.663,114.011 102.33,115.178 102.5,116.5C 108.509,116.334 114.509,116.501 120.5,117C 122.904,117.508 123.571,118.675 122.5,120.5C 96.1751,121.5 69.8418,121.833 43.5,121.5C 43.5,119.833 43.5,118.167 43.5,116.5C 61.8333,116.5 80.1667,116.5 98.5,116.5C 98.5,115.167 98.5,113.833 98.5,112.5C 96.712,112.785 95.0453,112.452 93.5,111.5C 100.165,100.161 100.165,88.8276 93.5,77.5 Z"/></g>
<g><path style="opacity:0.756" fill="#ffffff" d="M 22.5,81.5 C 35.4502,83.4111 39.6169,90.4111 35,102.5C 31.1,107.533 26.2667,108.7 20.5,106C 16.9409,102.13 16.6075,97.9635 19.5,93.5C 21.1727,91.9137 23.1727,91.2471 25.5,91.5C 24.3183,94.8062 23.485,98.1395 23,101.5C 26.0478,103.698 28.7144,103.032 31,99.5C 33.6652,92.8302 31.4986,88.4969 24.5,86.5C 14.6397,89.541 10.973,96.2077 13.5,106.5C 11.549,106.773 10.049,106.107 9,104.5C 6.89021,92.6939 11.3902,85.0272 22.5,81.5 Z"/></g>
</svg>
