<?xml version="1.0" encoding="UTF-8"?>
<!DOCTYPE svg PUBLIC "-//W3C//DTD SVG 1.1//EN" "http://www.w3.org/Graphics/SVG/1.1/DTD/svg11.dtd">
<svg xmlns="http://www.w3.org/2000/svg" version="1.1" width="128px" height="128px" style="shape-rendering:geometricPrecision; text-rendering:geometricPrecision; image-rendering:optimizeQuality; fill-rule:evenodd; clip-rule:evenodd" xmlns:xlink="http://www.w3.org/1999/xlink">
<g><path style="opacity:0.768" fill="#000000" d="M 66.5,-0.5 C 71.5,-0.5 76.5,-0.5 81.5,-0.5C 88.489,2.82653 93.489,8.15986 96.5,15.5C 108.695,20.1884 114.695,29.1884 114.5,42.5C 114.671,46.9801 113.671,51.1468 111.5,55C 112.863,56.9449 113.697,59.1116 114,61.5C 114.296,64.7058 114.796,67.8725 115.5,71C 115.265,71.8732 114.931,72.7065 114.5,73.5C 117.937,75.4709 119.27,78.4709 118.5,82.5C 118.409,89.7762 114.909,94.7762 108,97.5C 102.557,112.444 92.3908,122.444 77.5,127.5C 73.1667,127.5 68.8333,127.5 64.5,127.5C 49.6092,122.444 39.4425,112.444 34,97.5C 26.7277,94.6178 23.2277,89.2844 23.5,81.5C 13.9896,80.4776 9.82289,75.1443 11,65.5C 8.56447,61.5174 7.8978,57.184 9,52.5C 14.105,48.5959 19.2717,44.7625 24.5,41C 27.7603,40.2165 30.9269,40.3832 34,41.5C 36.5104,20.8481 47.3437,6.84807 66.5,-0.5 Z M 42.5,30.5 C 47.628,15.0457 58.2947,6.04574 74.5,3.5C 81.667,4.24753 87.0004,7.74753 90.5,14C 80.5502,13.806 70.8835,15.306 61.5,18.5C 60.0961,20.5471 60.4294,22.2138 62.5,23.5C 72.5132,19.7695 82.8465,18.6028 93.5,20C 106.537,25.0504 111.704,34.5504 109,48.5C 108.305,50.7221 107.472,52.8887 106.5,55C 110.412,62.8748 111.246,71.0415 109,79.5C 106.463,66.9556 98.9626,58.7889 86.5,55C 82.5817,53.8436 78.5817,53.3436 74.5,53.5C 74.5,54.8333 74.5,56.1667 74.5,57.5C 99.0655,60.2182 108.565,73.5515 103,97.5C 96.4691,111.374 85.8025,120.041 71,123.5C 56.1737,120.012 45.507,111.345 39,97.5C 37.5615,92.2375 37.2282,86.9042 38,81.5C 45.1144,78.6148 48.1144,73.2815 47,65.5C 53.6136,60.5149 61.1136,57.6816 69.5,57C 70.8198,54.785 70.1531,53.285 67.5,52.5C 61.4275,53.5182 55.4275,54.8515 49.5,56.5C 49.7529,54.1727 49.0863,52.1727 47.5,50.5C 44.4581,48.4963 41.4581,46.4963 38.5,44.5C 42.8333,36.8333 48.8333,30.8333 56.5,26.5C 57.9039,24.4529 57.5706,22.7862 55.5,21.5C 50.8731,24.1354 46.5398,27.1354 42.5,30.5 Z M 28.5,44.5 C 32.1877,45.3493 34.8543,47.5159 36.5,51C 45.1628,52.4754 46.9961,56.642 42,63.5C 41.289,65.8991 41.4557,68.2324 42.5,70.5C 39.2616,77.101 34.7616,78.101 29,73.5C 25.8092,76.5102 22.3092,77.0102 18.5,75C 16.255,72.1041 15.9216,68.9374 17.5,65.5C 10.1986,58.2715 11.532,53.4382 21.5,51C 23.1013,47.8932 25.4347,45.7265 28.5,44.5 Z M 27.5,57.5 C 30.4678,57.6261 32.4678,59.1261 33.5,62C 30.1919,67.9381 27.1919,67.9381 24.5,62C 24.5572,59.7911 25.5572,58.2911 27.5,57.5 Z M 28.5,79.5 C 30.1703,79.7512 31.6703,80.4178 33,81.5C 33.2009,84.5147 32.8676,87.5147 32,90.5C 28.9659,87.4858 27.7992,83.8191 28.5,79.5 Z M 110.5,89.5 C 111.654,86.5212 112.82,83.5212 114,80.5C 115.041,84.4096 113.875,87.4096 110.5,89.5 Z"/></g>
<g><path style="opacity:0.757" fill="#000000" d="M 68.5,37.5 C 79.8104,36.4946 90.4771,38.4946 100.5,43.5C 101.904,45.5471 101.571,47.2138 99.5,48.5C 92.114,44.089 84.114,42.089 75.5,42.5C 66.4515,42.3152 57.7848,43.9819 49.5,47.5C 47.4294,46.2138 47.0961,44.5471 48.5,42.5C 55.0945,40.0535 61.7611,38.3868 68.5,37.5 Z"/></g>
<g><path style="opacity:0.756" fill="#000000" d="M 27.5,52.5 C 36.0029,53.5079 39.1695,58.1745 37,66.5C 32.0055,72.7683 26.6721,73.1016 21,67.5C 17.7498,60.0096 19.9165,55.0096 27.5,52.5 Z M 27.5,57.5 C 25.5572,58.2911 24.5572,59.7911 24.5,62C 27.1919,67.9381 30.1919,67.9381 33.5,62C 32.4678,59.1261 30.4678,57.6261 27.5,57.5 Z"/></g>
<g><path style="opacity:0.72" fill="#000000" d="M 55.5,77.5 C 61.032,78.0286 63.6986,81.0286 63.5,86.5C 62.1266,86.6567 60.7932,86.49 59.5,86C 58.8448,84.5134 57.8448,83.3467 56.5,82.5C 54.2984,83.7797 52.1317,83.7797 50,82.5C 49.4926,81.0039 49.9926,79.8373 51.5,79C 53.0581,78.79 54.3915,78.29 55.5,77.5 Z"/></g>
<g><path style="opacity:0.741" fill="#000000" d="M 84.5,77.5 C 87.5967,77.7686 90.2634,78.9353 92.5,81C 90.6647,83.629 88.3314,84.129 85.5,82.5C 84.1667,83.1667 83.1667,84.1667 82.5,85.5C 81.3112,86.4287 79.9778,86.762 78.5,86.5C 78.1529,81.8601 80.1529,78.8601 84.5,77.5 Z"/></g>
<g><path style="opacity:0.699" fill="#000000" d="M 60.5,100.5 C 63.6104,102.044 66.9437,103.044 70.5,103.5C 73.8836,103.227 77.0503,102.227 80,100.5C 82.5,101.333 83,102.833 81.5,105C 74.2071,109.781 67.0405,109.615 60,104.5C 59.4209,103.072 59.5876,101.738 60.5,100.5 Z"/></g>
</svg>
