<?xml version="1.0" encoding="UTF-8"?>
<!DOCTYPE svg PUBLIC "-//W3C//DTD SVG 1.1//EN" "http://www.w3.org/Graphics/SVG/1.1/DTD/svg11.dtd">
<svg xmlns="http://www.w3.org/2000/svg" version="1.1" width="128px" height="128px" style="shape-rendering:geometricPrecision; text-rendering:geometricPrecision; image-rendering:optimizeQuality; fill-rule:evenodd; clip-rule:evenodd" xmlns:xlink="http://www.w3.org/1999/xlink">
<g><path style="opacity:0.785" fill="#ffffff" d="M 101.5,-0.5 C 104.167,-0.5 106.833,-0.5 109.5,-0.5C 109.714,1.14387 109.38,2.64387 108.5,4C 92.3529,7.0294 76.3529,10.6961 60.5,15C 54.9325,16.7834 49.5992,19.1167 44.5,22C 43.2567,23.1545 42.2567,24.4878 41.5,26C 49.917,44.3348 58.7504,62.5015 68,80.5C 71.2517,94.0042 75.9183,107.004 82,119.5C 82.2936,114.669 82.127,109.836 81.5,105C 82.8265,99.2036 83.6599,93.3703 84,87.5C 78.0093,86.8426 74.6759,83.5093 74,77.5C 73.6855,65.7041 72.3522,54.0374 70,42.5C 68.2728,39.107 65.6062,36.7736 62,35.5C 61.4293,31.3854 63.2626,28.8854 67.5,28C 80.8404,27.233 94.1737,26.3997 107.5,25.5C 109.619,25.5976 111.286,26.4309 112.5,28C 111.672,28.9147 110.672,29.5814 109.5,30C 102.209,31.0808 94.8758,31.7475 87.5,32C 94.2668,36.1446 101.6,38.478 109.5,39C 111.107,40.049 111.773,41.549 111.5,43.5C 99.0635,43.7436 88.0635,39.9103 78.5,32C 75.134,31.6699 71.8006,32.0033 68.5,33C 72.381,35.9276 74.881,39.7609 76,44.5C 77.2795,56.1955 78.6128,67.8622 80,79.5C 83.2678,80.9764 86.2678,82.9764 89,85.5C 89.6667,88.8333 89.6667,92.1667 89,95.5C 87.158,98.7543 86.3246,102.254 86.5,106C 87.3607,111.822 87.5273,117.656 87,123.5C 86.3378,124.984 85.5045,126.317 84.5,127.5C 82.8333,127.5 81.1667,127.5 79.5,127.5C 75.6245,117.411 71.4579,107.411 67,97.5C 64.8814,85.93 60.5481,75.2633 54,65.5C 52.0678,69.7982 50.2344,74.1315 48.5,78.5C 50.1033,81.2796 51.9366,83.9462 54,86.5C 54.6667,88.1667 54.6667,89.8333 54,91.5C 51.6667,93.8333 49.3333,96.1667 47,98.5C 43.7566,105.986 40.2566,113.319 36.5,120.5C 34.2573,121.474 31.924,121.808 29.5,121.5C 29.3335,111.828 29.5002,102.161 30,92.5C 33.179,74.4383 36.679,56.4383 40.5,38.5C 39.2734,34.3194 37.94,30.1527 36.5,26C 38.8651,19.3051 43.5317,14.9718 50.5,13C 67.415,7.68967 84.415,3.18967 101.5,-0.5 Z M 44.5,45.5 C 46.9651,49.7038 48.9651,54.2038 50.5,59C 47.7302,65.7015 45.3968,72.5348 43.5,79.5C 43.6667,80.8333 43.8333,82.1667 44,83.5C 46.1667,85 48,86.8333 49.5,89C 46.3333,90.8333 43.8333,93.3333 42,96.5C 39.4722,101.751 37.1389,107.084 35,112.5C 34.3333,106.167 34.3333,99.8333 35,93.5C 37.7213,77.3935 40.888,61.3935 44.5,45.5 Z"/></g>
<g><path style="opacity:0.793" fill="#ffffff" d="M 23.5,27.5 C 24.8734,27.3433 26.2068,27.51 27.5,28C 28.5218,30.5448 29.6884,33.0448 31,35.5C 37,38.1667 37,40.8333 31,43.5C 27.3333,54.1667 23.6667,54.1667 20,43.5C 14,40.8333 14,38.1667 20,35.5C 21.4563,32.9244 22.623,30.2577 23.5,27.5 Z M 24.5,37.5 C 27.8606,38.2032 28.1939,39.5365 25.5,41.5C 23.3576,40.5629 23.0243,39.2296 24.5,37.5 Z"/></g>
<g><path style="opacity:0.808" fill="#ffffff" d="M 89.5,43.5 C 90.8734,43.3433 92.2068,43.51 93.5,44C 95.5176,49.561 98.8509,54.061 103.5,57.5C 98.8928,60.6878 95.7262,65.0211 94,70.5C 92.3333,71.8333 90.6667,71.8333 89,70.5C 87.2738,65.0211 84.1072,60.6878 79.5,57.5C 84.2889,53.9404 87.6223,49.2738 89.5,43.5 Z M 90.5,52.5 C 92.4304,53.7635 94.0971,55.4301 95.5,57.5C 94.1667,59.1667 92.8333,60.8333 91.5,62.5C 90.1667,60.8333 88.8333,59.1667 87.5,57.5C 88.9524,56.0603 89.9524,54.3936 90.5,52.5 Z"/></g>
<g><path style="opacity:0.793" fill="#ffffff" d="M 99.5,69.5 C 100.873,69.3433 102.207,69.51 103.5,70C 104.522,72.5448 105.688,75.0448 107,77.5C 113,80.1667 113,82.8333 107,85.5C 103.333,96.1667 99.6667,96.1667 96,85.5C 90,82.8333 90,80.1667 96,77.5C 97.4563,74.9244 98.623,72.2577 99.5,69.5 Z M 100.5,79.5 C 103.861,80.2032 104.194,81.5365 101.5,83.5C 99.3576,82.5629 99.0243,81.2296 100.5,79.5 Z"/></g>
</svg>
