<?xml version="1.0" encoding="UTF-8"?>
<!DOCTYPE svg PUBLIC "-//W3C//DTD SVG 1.1//EN" "http://www.w3.org/Graphics/SVG/1.1/DTD/svg11.dtd">
<svg xmlns="http://www.w3.org/2000/svg" version="1.1" width="128px" height="128px" style="shape-rendering:geometricPrecision; text-rendering:geometricPrecision; image-rendering:optimizeQuality; fill-rule:evenodd; clip-rule:evenodd" xmlns:xlink="http://www.w3.org/1999/xlink">
<g><path style="opacity:0.784" fill="#ffffff" d="M 21.5,-0.5 C 22.8333,-0.5 24.1667,-0.5 25.5,-0.5C 26.6478,13.4252 26.8145,27.4252 26,41.5C 24.8273,45.3372 22.8273,48.6706 20,51.5C 18.9019,55.5052 19.7352,59.0052 22.5,62C 28.0409,63.685 32.8743,66.5183 37,70.5C 39.2029,75.7443 42.0362,80.5777 45.5,85C 55.6066,88.0285 65.9399,89.0285 76.5,88C 78.0074,87.1627 78.5074,85.9961 78,84.5C 74.3542,82.9692 70.5209,81.8025 66.5,81C 59.2815,72.1156 52.4482,62.949 46,53.5C 45.5001,35.5031 45.3334,17.5031 45.5,-0.5C 46.8333,-0.5 48.1667,-0.5 49.5,-0.5C 49.3334,16.5033 49.5001,33.5033 50,50.5C 56.114,59.6145 62.614,68.4478 69.5,77C 76.6089,76.0458 81.2755,78.8791 83.5,85.5C 81.3503,92.2492 76.6836,94.9159 69.5,93.5C 60.2377,93.3851 51.2377,91.8851 42.5,89C 38.4553,84.4181 35.2886,79.2514 33,73.5C 27.5314,70.4297 22.198,67.0964 17,63.5C 14.1074,58.6862 13.7741,53.6862 16,48.5C 17.6667,46.1667 19.3333,43.8333 21,41.5C 21.4999,27.504 21.6666,13.504 21.5,-0.5 Z"/></g>
<g><path style="opacity:0.792" fill="#ffffff" d="M 61.5,10.5 C 62.8734,10.3433 64.2068,10.51 65.5,11C 67.4805,14.2723 69.8139,17.1056 72.5,19.5C 72.3333,20.1667 72.1667,20.8333 72,21.5C 68.7296,23.4685 65.8963,25.8019 63.5,28.5C 62.8333,28.3333 62.1667,28.1667 61.5,28C 59.2836,24.9449 56.9503,22.1116 54.5,19.5C 57.4745,17.1307 59.8078,14.1307 61.5,10.5 Z M 62.5,18.5 C 64.337,18.6395 64.6704,19.3061 63.5,20.5C 62.7025,20.0431 62.3691,19.3764 62.5,18.5 Z"/></g>
<g><path style="opacity:0.788" fill="#ffffff" d="M 85.5,27.5 C 89.8843,29.0382 92.551,32.2048 93.5,37C 94.448,37.4828 95.448,37.6495 96.5,37.5C 96.762,38.9778 96.4287,40.3112 95.5,41.5C 90.2492,43.3467 90.4158,45.0134 96,46.5C 99.8217,43.8994 100.988,40.5661 99.5,36.5C 102.864,35.8728 104.864,37.2061 105.5,40.5C 104.611,43.9465 102.944,46.9465 100.5,49.5C 108.476,59.3791 106.143,63.5458 93.5,62C 92.7109,64.3651 91.5442,66.5318 90,68.5C 87.9251,70.6483 85.5918,70.9817 83,69.5C 81.5116,66.6672 79.845,64.0006 78,61.5C 74.7423,62.9286 71.5756,62.7619 68.5,61C 67.4238,59.2739 67.2571,57.4406 68,55.5C 69.0468,53.2379 70.2135,51.0712 71.5,49C 64.4132,39.1696 66.7465,35.3363 78.5,37.5C 79.8727,33.3957 82.206,30.0624 85.5,27.5 Z M 85.5,34.5 C 87.1852,35.1837 88.1852,36.517 88.5,38.5C 87.1349,39.941 85.6349,41.2744 84,42.5C 83.9552,39.7804 84.4552,37.1138 85.5,34.5 Z M 72.5,42.5 C 76.2312,40.5654 78.5646,41.7321 79.5,46C 79,46.5 78.5,47 78,47.5C 76.2962,45.6266 74.4628,43.9599 72.5,42.5 Z M 84.5,46.5 C 89.9388,47.2202 90.6054,49.2202 86.5,52.5C 83.6095,51.1627 82.9428,49.1627 84.5,46.5 Z M 93.5,50.5 C 95.8122,52.1455 97.8122,54.1455 99.5,56.5C 97.5988,57.2309 95.5988,57.2309 93.5,56.5C 93.5,54.5 93.5,52.5 93.5,50.5 Z M 75.5,52.5 C 77.5932,53.0447 79.5932,53.878 81.5,55C 78.6846,56.7213 75.6846,57.3879 72.5,57C 73.3862,55.3853 74.3862,53.8853 75.5,52.5 Z M 87.5,56.5 C 88.2389,56.369 88.9056,56.5357 89.5,57C 88.856,59.74 87.6893,62.24 86,64.5C 83.7843,61.2815 84.2843,58.6149 87.5,56.5 Z"/></g>
<g><path style="opacity:0.727" fill="#ffffff" d="M 91.5,71.5 C 95.6369,71.2985 97.9702,73.2985 98.5,77.5C 95.9413,81.2473 95.2746,85.2473 96.5,89.5C 94.8567,93.4154 93.0233,93.4154 91,89.5C 89.8864,85.0502 90.7197,81.0502 93.5,77.5C 91.9137,75.8273 91.2471,73.8273 91.5,71.5 Z"/></g>
<g><path style="opacity:0.756" fill="#ffffff" d="M 102.5,71.5 C 106.852,71.3217 108.852,73.4883 108.5,78C 108.004,80.8386 107.004,83.5053 105.5,86C 108.3,88.4191 108.133,90.5858 105,92.5C 100.497,87.9236 100.33,83.0902 104.5,78C 102.984,76.103 102.317,73.9363 102.5,71.5 Z"/></g>
<g><path style="opacity:0.882" fill="#ffffff" d="M 95.5,127.5 C 78.1667,127.5 60.8333,127.5 43.5,127.5C 29.9061,121.647 24.7394,111.313 28,96.5C 36.4149,95.5168 44.9149,95.1834 53.5,95.5C 53.5,96.8333 53.5,98.1667 53.5,99.5C 46.1667,99.5 38.8333,99.5 31.5,99.5C 31.5,100.5 31.5,101.5 31.5,102.5C 56.8333,102.5 82.1667,102.5 107.5,102.5C 107.5,101.5 107.5,100.5 107.5,99.5C 90.5,99.5 73.5,99.5 56.5,99.5C 56.5,98.1667 56.5,96.8333 56.5,95.5C 74.8364,95.3334 93.1697,95.5001 111.5,96C 112.648,101.447 112.648,106.947 111.5,112.5C 110.167,112.5 108.833,112.5 107.5,112.5C 107.5,110.5 107.5,108.5 107.5,106.5C 82.5,106.5 57.5,106.5 32.5,106.5C 33.5323,116.034 38.8657,121.534 48.5,123C 62.8333,123.667 77.1667,123.667 91.5,123C 94.376,122.562 97.0427,121.562 99.5,120C 101.373,117.791 103.54,115.958 106,114.5C 107.678,115.466 108.345,116.799 108,118.5C 104.701,122.882 100.534,125.882 95.5,127.5 Z"/></g>
</svg>
